<svg width="24" height="24" viewBox="0 0 24 24" fill="none" xmlns="http://www.w3.org/2000/svg">
<path fill-rule="evenodd" clip-rule="evenodd" d="M18.639 10.782C18.9172 11.0602 18.9172 11.5112 18.639 11.7895L12.6492 17.7792C12.2906 18.1378 11.7092 18.1378 11.3505 17.7792L5.36077 11.7895C5.08256 11.5112 5.08256 11.0602 5.36077 10.782C5.63885 10.5039 6.08965 10.5038 6.36791 10.7816L11.2856 15.6929V2.71429C11.2856 2.3198 11.6054 2 11.9999 2C12.3944 2 12.7142 2.3198 12.7142 2.71429V15.6929L17.6319 10.7816C17.9101 10.5038 18.3609 10.5039 18.639 10.782ZM19.1428 18.4286C19.1428 18.0341 19.4626 17.7143 19.857 17.7143C20.2515 17.7143 20.5713 18.0341 20.5713 18.4286V20.5714C20.5713 20.9503 20.4208 21.3137 20.1529 21.5816C19.885 21.8495 19.5216 22 19.1428 22H4.85704C4.47816 22 4.11479 21.8495 3.84689 21.5816C3.57898 21.3137 3.42847 20.9503 3.42847 20.5714V18.4286C3.42847 18.0341 3.74826 17.7143 4.14275 17.7143C4.53724 17.7143 4.85704 18.0341 4.85704 18.4286V20.5714H19.1428V18.4286Z" fill="black"/>
</svg>
