<svg width="24" height="24" viewBox="0 0 24 24" fill="none" xmlns="http://www.w3.org/2000/svg">
<path d="M11.375 15.1641V5.75C11.375 5.56771 11.4336 5.41797 11.5508 5.30078C11.668 5.18359 11.8177 5.125 12 5.125C12.1823 5.125 12.332 5.18359 12.4492 5.30078C12.5664 5.41797 12.625 5.56771 12.625 5.75V15.1641H11.375ZM11.375 16.3945H12.625V17.5664H11.375V16.3945ZM2 12C2 9.23958 2.97656 6.88281 4.92969 4.92969C6.88281 2.97656 9.23958 2 12 2C14.7604 2 17.1172 2.97656 19.0703 4.92969C21.0234 6.88281 22 9.23958 22 12C22 14.7604 21.0234 17.1172 19.0703 19.0703C17.1172 21.0234 14.7604 22 12 22C9.23958 22 6.88281 21.0234 4.92969 19.0703C2.97656 17.1172 2 14.7604 2 12ZM20.7695 12C20.7695 9.59115 19.9102 7.5306 18.1914 5.81836C16.4727 4.10612 14.4089 3.25 12 3.25C9.59115 3.25 7.5306 4.10612 5.81836 5.81836C4.10612 7.5306 3.25 9.59115 3.25 12C3.25 14.4089 4.10612 16.4694 5.81836 18.1816C7.5306 19.8939 9.59115 20.75 12 20.75C14.4089 20.75 16.4727 19.8939 18.1914 18.1816C19.9102 16.4694 20.7695 14.4089 20.7695 12Z" fill="#FD4C4C"/>
</svg>
