<svg width="24" height="24" viewBox="0 0 24 24" fill="none" xmlns="http://www.w3.org/2000/svg">
<path fill-rule="evenodd" clip-rule="evenodd" d="M3.83566 5.14205C4.15539 5.03616 4.6054 4.9054 5.19776 4.77376C6.60572 4.46088 8.81917 4.14281 12 4.14281C15.1809 4.14281 17.3943 4.46088 18.8023 4.77376C19.3947 4.9054 19.8447 5.03616 20.1644 5.14205L13.5469 12.9627C13.4705 13.053 13.4286 13.1674 13.4286 13.2857V18.7624L10.5715 20.191V13.2857C10.5715 13.1674 10.5295 13.053 10.4531 12.9627L3.83566 5.14205ZM21.0001 4.92852L21.2237 4.48131C21.3609 4.54992 21.459 4.67772 21.4898 4.82799C21.5207 4.97827 21.4808 5.13439 21.3818 5.2515L14.4286 13.4688V19.0714C14.4286 19.2608 14.3216 19.4339 14.1522 19.5186L10.2951 21.4472C10.1401 21.5247 9.956 21.5164 9.80859 21.4253C9.66118 21.3342 9.57146 21.1733 9.57146 21V13.4688L2.61831 5.2515C2.51922 5.13439 2.47937 4.97827 2.51022 4.82799C2.54106 4.67772 2.63919 4.54992 2.7764 4.48131L3 4.92852C2.7764 4.48131 2.77616 4.48143 2.7764 4.48131L2.77739 4.48082L2.77862 4.48021L2.78179 4.47865L2.79099 4.47418L2.82092 4.46011C2.84605 4.44851 2.88157 4.43259 2.92778 4.41299C3.0202 4.37378 3.15539 4.31982 3.33583 4.25614C3.69674 4.12876 4.23843 3.96255 4.98083 3.79757C6.46574 3.46759 8.75231 3.14281 12 3.14281C15.2478 3.14281 17.5343 3.46759 19.0192 3.79757C19.7616 3.96255 20.3033 4.12876 20.6642 4.25614C20.8447 4.31982 20.9799 4.37378 21.0723 4.41299C21.1185 4.43259 21.154 4.44851 21.1791 4.46011L21.2091 4.47418L21.2183 4.47865L21.2214 4.48021L21.2237 4.48131C21.2239 4.48143 21.2237 4.48131 21.0001 4.92852Z" fill="black"/>
</svg>
