<svg width="24" height="24" viewBox="0 0 24 24" fill="none" xmlns="http://www.w3.org/2000/svg">
<path d="M16.2123 14.7031C16.2123 15.5876 15.8973 16.3283 15.2671 16.9253C14.6369 17.5224 13.8022 17.8817 12.7629 18.0033V19.2471C12.7629 19.5676 12.5031 19.8275 12.1825 19.8275C11.862 19.8275 11.6021 19.5676 11.6021 19.2471V18.0199C10.8392 17.9756 10.1317 17.8264 9.47937 17.5721C8.97549 17.3723 8.51939 17.111 8.11108 16.7883C7.91257 16.6314 7.86429 16.3554 7.976 16.1284C8.14126 15.7925 8.57799 15.7043 8.88551 15.9177C9.22166 16.1509 9.55782 16.3375 9.89397 16.4776C10.4357 16.6987 11.0217 16.8258 11.6518 16.859V12.6468C10.889 12.4478 10.2588 12.2377 9.7613 12.0166C9.26379 11.7955 8.84367 11.4748 8.50094 11.0547C8.16927 10.6235 8.00343 10.0597 8.00343 9.36319C8.00343 8.75512 8.15268 8.20786 8.45119 7.72141C8.76075 7.23495 9.1864 6.84247 9.72813 6.54396C10.2699 6.2344 10.8945 6.04646 11.6021 5.98012V4.75293C11.6021 4.43237 11.862 4.1725 12.1825 4.1725C12.5031 4.1725 12.7629 4.43237 12.7629 4.75293V5.9967C13.4042 6.05198 14.0122 6.20676 14.5871 6.46105C15.0385 6.65694 15.4375 6.89875 15.7839 7.1865C15.968 7.33946 16.0086 7.6005 15.9029 7.81529C15.7359 8.1547 15.2864 8.23246 14.9782 8.01314C14.3078 7.53604 13.5528 7.25085 12.7132 7.15756V11.6186C13.4429 11.7955 14.0454 11.9889 14.5208 12.199C15.0073 12.4091 15.4108 12.7186 15.7314 13.1277C16.052 13.5257 16.2123 14.0508 16.2123 14.7031ZM9.39646 9.31344C9.39646 9.87728 9.58993 10.3085 9.97688 10.607C10.3638 10.9055 10.9222 11.1542 11.6518 11.3532V7.15756C10.9443 7.2239 10.3915 7.45054 9.99347 7.83749C9.59546 8.21339 9.39646 8.70537 9.39646 9.31344ZM12.7132 16.8258C13.3876 16.7374 13.9072 16.5163 14.2721 16.1625C14.648 15.7977 14.8359 15.3223 14.8359 14.7363C14.8359 14.2498 14.6535 13.8739 14.2886 13.6086C13.9238 13.3322 13.3986 13.1 12.7132 12.9121V16.8258Z" fill="#2E3A59"/>
</svg>
