<svg width="21" height="20" viewBox="0 0 21 20" fill="none" xmlns="http://www.w3.org/2000/svg">
<path d="M10.4993 2.5C9.36867 2.5 8.28963 2.72016 7.26223 3.16047C6.23484 3.60078 5.34877 4.1933 4.60405 4.93803C3.85932 5.68276 3.2668 6.57154 2.82649 7.60437C2.38617 8.6372 2.16602 9.71896 2.16602 10.8496C2.16602 12.2847 2.5112 13.6274 3.20157 14.8777C3.89193 16.128 4.85138 17.1391 6.07991 17.911C6.1995 17.9871 6.32996 18.0088 6.4713 17.9762C6.61263 17.9436 6.72135 17.8675 6.79746 17.7479C6.87356 17.6283 6.89531 17.4978 6.86269 17.3565C6.83007 17.2152 6.75397 17.1064 6.63438 17.0303C5.75375 16.4759 5.02533 15.7746 4.44912 14.9266L5.00359 14.6005C5.12318 14.5352 5.202 14.4319 5.24005 14.2906C5.27811 14.1493 5.2618 14.0161 5.19113 13.8911C5.12046 13.766 5.01446 13.6845 4.87313 13.6464C4.73179 13.6084 4.60133 13.6274 4.48174 13.7035L3.92727 14.0134C3.73157 13.6002 3.57393 13.1708 3.45434 12.725C3.33475 12.2793 3.25864 11.8227 3.22603 11.3552H3.79681C3.94901 11.3552 4.07404 11.3035 4.17189 11.2003C4.26973 11.097 4.31866 10.9747 4.31866 10.8333C4.31866 10.692 4.26973 10.5697 4.17189 10.4664C4.07404 10.3631 3.94901 10.3115 3.79681 10.3115H3.22603C3.29126 9.36562 3.53588 8.46869 3.95988 7.62068L4.48174 7.93053C4.55784 7.97402 4.64482 7.99576 4.74266 7.99576C4.93836 7.99576 5.08513 7.90878 5.18298 7.73483C5.25908 7.61524 5.27811 7.48478 5.24005 7.34344C5.202 7.20211 5.12318 7.09883 5.00359 7.03359L4.48174 6.72374C5.01446 5.95184 5.66678 5.30496 6.43868 4.7831L6.73223 5.28865C6.83007 5.4626 6.98228 5.54958 7.18885 5.54958C7.27582 5.54958 7.3628 5.52783 7.44977 5.48434C7.50413 5.45173 7.55306 5.40552 7.59654 5.34573C7.64003 5.28593 7.66993 5.22614 7.68624 5.16634C7.70255 5.10654 7.70798 5.04131 7.70255 4.97065C7.69711 4.89998 7.67265 4.83203 7.62916 4.7668L7.33562 4.26125C7.74875 4.06556 8.17547 3.91063 8.61579 3.79648C9.0561 3.68232 9.50457 3.6035 9.96119 3.56001V4.21233C9.96119 4.36454 10.0128 4.48956 10.1161 4.58741C10.2194 4.68526 10.3444 4.73418 10.4912 4.73418C10.638 4.73418 10.7603 4.68526 10.8581 4.58741C10.956 4.48956 11.0049 4.36454 11.0049 4.21233V3.56001C11.9508 3.62524 12.8477 3.86443 13.6957 4.27756L13.4022 4.7668C13.3913 4.79941 13.3804 4.82931 13.3695 4.85649C13.3587 4.88367 13.3505 4.91357 13.3451 4.94618C13.3396 4.9788 13.3369 5.0087 13.3369 5.03588C13.3369 5.06306 13.3396 5.09295 13.3451 5.12557C13.3505 5.15819 13.3587 5.18808 13.3695 5.21526C13.3804 5.24244 13.394 5.26962 13.4103 5.2968C13.4266 5.32398 13.4429 5.34845 13.4592 5.37019C13.4755 5.39193 13.4946 5.41368 13.5163 5.43542C13.5381 5.45716 13.5652 5.47347 13.5978 5.48434L13.6631 5.51696L13.7283 5.54142L13.7935 5.54958H13.8588C13.9023 5.54958 13.9458 5.54414 13.9892 5.53327C14.0327 5.5224 14.0735 5.50609 14.1115 5.48434C14.1496 5.4626 14.1877 5.43542 14.2257 5.4028C14.2638 5.37019 14.2937 5.33214 14.3154 5.28865L14.5926 4.79941C15.3645 5.33214 16.0114 5.97902 16.5333 6.74005L16.044 7.03359C15.9788 7.06621 15.9272 7.1097 15.8891 7.16406C15.8511 7.21842 15.8212 7.27821 15.7994 7.34344C15.7777 7.40868 15.7722 7.47662 15.7831 7.54729C15.794 7.61796 15.8157 7.68047 15.8483 7.73483C15.9027 7.82181 15.9706 7.88704 16.0522 7.93053C16.1337 7.97402 16.218 7.99576 16.305 7.99576C16.3484 7.99576 16.3919 7.99032 16.4354 7.97945C16.4789 7.96858 16.5224 7.95227 16.5659 7.93053L17.0551 7.65329C17.4683 8.49043 17.7074 9.38193 17.7727 10.3278H17.2019C17.0606 10.3278 16.9382 10.3794 16.835 10.4827C16.7317 10.586 16.68 10.7083 16.68 10.8496C16.68 10.991 16.7317 11.1133 16.835 11.2166C16.9382 11.3199 17.0606 11.3715 17.2019 11.3715H17.7727C17.7074 12.2956 17.4791 13.1708 17.0877 13.9971L16.5659 13.7035C16.4354 13.6274 16.3022 13.6084 16.1663 13.6464C16.0304 13.6845 15.9244 13.7688 15.8483 13.8992C15.8157 13.9536 15.794 14.0161 15.7831 14.0868C15.7722 14.1574 15.7777 14.2254 15.7994 14.2906C15.8212 14.3558 15.8511 14.4156 15.8891 14.47C15.9272 14.5244 15.9788 14.5678 16.044 14.6005L16.5659 14.9103C15.9788 15.7801 15.2286 16.4976 14.3154 17.0629C14.1958 17.1391 14.1197 17.2451 14.0871 17.381C14.0545 17.5169 14.0762 17.65 14.1523 17.7805C14.1849 17.824 14.2257 17.8648 14.2746 17.9028C14.3236 17.9409 14.3752 17.9708 14.4296 17.9925C14.4839 18.0142 14.5383 18.0251 14.5926 18.0251C14.6905 18.0251 14.7829 17.9979 14.8699 17.9436C16.1093 17.1825 17.0796 16.1742 17.7808 14.9185C18.4821 13.6628 18.8327 12.301 18.8327 10.8333C18.8327 9.71352 18.6125 8.6372 18.1722 7.60437C17.7319 6.57154 17.1394 5.68276 16.3947 4.93803C15.6499 4.1933 14.7639 3.60078 13.7365 3.16047C12.7091 2.72016 11.63 2.5 10.4993 2.5ZM14.348 9.21885C14.435 9.16449 14.5002 9.09654 14.5437 9.015C14.5872 8.93346 14.6089 8.84921 14.6089 8.76223C14.6089 8.67526 14.5872 8.58828 14.5437 8.5013C14.4676 8.38171 14.3616 8.30289 14.2257 8.26484C14.0898 8.22679 13.9566 8.24038 13.8262 8.30561L10.9886 9.95271C10.8255 9.85486 10.657 9.80594 10.483 9.80594C10.2004 9.80594 9.95575 9.90922 9.74919 10.1158C9.54262 10.3224 9.43934 10.567 9.43934 10.8496C9.43934 11.0345 9.48554 11.2084 9.57795 11.3715C9.67036 11.5346 9.79811 11.6623 9.96119 11.7547C10.1243 11.8471 10.2982 11.8933 10.483 11.8933C10.7657 11.8933 11.0103 11.7901 11.2169 11.5835C11.4235 11.3769 11.5267 11.1323 11.5267 10.8496L14.348 9.21885Z" fill="#EDF1F7"/>
</svg>
