<svg width="16" height="16" viewBox="0 0 16 16" fill="none" xmlns="http://www.w3.org/2000/svg">
<path d="M10.6689 8.32449L10.6689 8.32449C10.7661 8.22724 10.817 8.10588 10.817 7.96842C10.817 7.83097 10.7661 7.70961 10.6689 7.61236L5.73139 2.67486C5.63303 2.5765 5.50947 2.52676 5.37012 2.52676C5.23077 2.52676 5.1072 2.5765 5.00884 2.67486C4.94708 2.73662 4.90541 2.81218 4.88184 2.89703C4.85718 2.98579 4.85718 3.07605 4.88184 3.16482C4.90541 3.24967 4.94708 3.32523 5.00884 3.38699L9.59028 7.96842L4.94634 12.6124C4.91004 12.6487 4.87846 12.6892 4.85574 12.7347C4.83737 12.7714 4.82295 12.8095 4.81314 12.8487C4.80296 12.8894 4.79824 12.9312 4.79824 12.9736C4.79824 13.0161 4.80297 13.0582 4.81223 13.0999C4.82175 13.1428 4.8362 13.1839 4.85574 13.223C4.87952 13.2706 4.91333 13.3101 4.95365 13.3421C5.04965 13.4347 5.16837 13.483 5.30241 13.483C5.43987 13.483 5.56122 13.4322 5.65847 13.3349L5.65848 13.3349L10.6689 8.32449Z" fill="#540075" stroke="#ffffff" stroke-width="0.3"/>
</svg>
