<svg width="48" height="49" viewBox="0 0 48 49" fill="none" xmlns="http://www.w3.org/2000/svg">
<rect x="-0.000488281" y="0.244141" width="48" height="48" rx="4" fill="#8500B9"/>
<g clip-path="url(#clip0)">
<path fill-rule="evenodd" clip-rule="evenodd" d="M31.8701 22.8238C32.1947 23.1483 32.1947 23.6746 31.8701 23.9992L24.8821 30.9872C24.4637 31.4056 23.7853 31.4056 23.3669 30.9872L16.3788 23.9992C16.0543 23.6746 16.0543 23.1483 16.3788 22.8238C16.7033 22.4993 17.2292 22.4992 17.5538 22.8234L23.2912 28.5531V13.4115C23.2912 12.9512 23.6643 12.5781 24.1245 12.5781C24.5847 12.5781 24.9578 12.9512 24.9578 13.4115V28.5531L30.6951 22.8234C31.0198 22.4992 31.5457 22.4993 31.8701 22.8238ZM32.4578 31.7448C32.4578 31.2846 32.8309 30.9115 33.2912 30.9115C33.7514 30.9115 34.1245 31.2846 34.1245 31.7448V34.2448C34.1245 34.6868 33.9489 35.1108 33.6364 35.4233C33.3238 35.7359 32.8999 35.9115 32.4578 35.9115H15.7912C15.3492 35.9115 14.9252 35.7359 14.6127 35.4233C14.3001 35.1108 14.1245 34.6868 14.1245 34.2448V31.7448C14.1245 31.2846 14.4976 30.9115 14.9578 30.9115C15.4181 30.9115 15.7912 31.2846 15.7912 31.7448V34.2448H32.4578V31.7448Z" fill="white"/>
</g>
<defs>
<clipPath id="clip0">
<rect width="28" height="28" fill="white" transform="translate(9.99951 10.2441)"/>
</clipPath>
</defs>
</svg>
