<svg width="32" height="35" viewBox="0 0 32 35" fill="none" xmlns="http://www.w3.org/2000/svg">
<path d="M29.1406 26.8398L21.2891 22.5039C22.5911 21.4622 23.5352 20.043 24.1211 18.2461C24.707 16.4492 25 14.7435 25 13.1289V7.85547C25 6.70964 24.5508 5.5638 23.6523 4.41797C22.7539 3.27214 21.5755 2.32812 20.1172 1.58594C18.6589 0.84375 17.1745 0.472656 15.6641 0.472656C14.7786 0.472656 13.8672 0.615885 12.9297 0.902344C11.9922 1.1888 11.1328 1.57943 10.3516 2.07422C9.57031 2.56901 8.86719 3.1224 8.24219 3.73438C7.61719 4.34635 7.12891 5.01693 6.77734 5.74609C6.42578 6.47526 6.25 7.17839 6.25 7.85547V13.1289C6.25 14.5872 6.57552 16.2409 7.22656 18.0898C7.8776 19.9388 8.86719 21.3971 10.1953 22.4648L2.10938 26.8398C1.95312 26.918 1.75781 27.0221 1.52344 27.1523C1.28906 27.2826 0.976562 27.5299 0.585938 27.8945C0.195312 28.2591 0 28.6107 0 28.9492V32.1133C0 32.7122 0.208333 33.2135 0.625 33.6172C1.04167 34.0208 1.53646 34.2227 2.10938 34.2227H29.1406C29.7135 34.2227 30.2083 34.0208 30.625 33.6172C31.0417 33.2135 31.25 32.7122 31.25 32.1133V28.9492C31.25 28.793 31.2109 28.6302 31.1328 28.4609C31.0547 28.2917 30.957 28.1419 30.8398 28.0117C30.7227 27.8815 30.5859 27.7513 30.4297 27.6211C30.2734 27.4909 30.1172 27.3802 29.9609 27.2891C29.8047 27.1979 29.668 27.1198 29.5508 27.0547C29.4336 26.9896 29.3359 26.944 29.2578 26.918L29.1406 26.8398ZM28.75 31.7227H2.5V29.4961C2.70833 29.3398 2.91667 29.2227 3.125 29.1445L3.28125 29.0664L11.3672 24.6523C11.4974 24.6003 11.6146 24.5286 11.7188 24.4375C11.8229 24.3464 11.9206 24.2552 12.0117 24.1641C12.1029 24.0729 12.1875 23.9688 12.2656 23.8516C12.3438 23.7344 12.4089 23.6107 12.4609 23.4805C12.513 23.3503 12.5586 23.2201 12.5977 23.0898C12.6367 22.9596 12.6562 22.8294 12.6562 22.6992C12.7344 21.8138 12.4349 21.0846 11.7578 20.5117C11.263 20.1211 10.8138 19.6003 10.4102 18.9492C10.0065 18.2982 9.6875 17.6211 9.45312 16.918C9.21875 16.2148 9.04297 15.5378 8.92578 14.8867C8.80859 14.2357 8.75 13.6497 8.75 13.1289V7.85547C8.75 6.86589 9.48568 5.80469 10.957 4.67188C12.4284 3.53906 13.9974 2.97266 15.6641 2.97266C17.3828 2.97266 18.9518 3.53255 20.3711 4.65234C21.7904 5.77214 22.5 6.83984 22.5 7.85547V13.1289C22.5 14.4049 22.2786 15.7656 21.8359 17.2109C21.3932 18.6562 20.6901 19.7565 19.7266 20.5117C19.0234 21.0846 18.7109 21.8138 18.7891 22.6992C18.8672 23.5846 19.2969 24.2487 20.0781 24.6914L27.9297 29.0273L28.1641 29.1445C28.3464 29.2227 28.5417 29.3398 28.75 29.4961V31.7227Z" fill="#2E3A59"/>
</svg>
