<svg width="16" height="16" viewBox="0 0 16 16" fill="none" xmlns="http://www.w3.org/2000/svg">
<path fill-rule="evenodd" clip-rule="evenodd" d="M7.99967 1.33301C8.19613 1.33301 8.38454 1.41105 8.52346 1.54997C8.66237 1.68888 8.74041 1.87729 8.74041 2.07375V7.99967C8.74041 8.19613 8.66237 8.38454 8.52346 8.52346C8.38454 8.66237 8.19613 8.74041 7.99967 8.74041H2.07375C1.87729 8.74041 1.68888 8.66237 1.54997 8.52346C1.41105 8.38454 1.33301 8.19613 1.33301 7.99967C1.33301 7.80322 1.41105 7.61481 1.54997 7.47589C1.68888 7.33698 1.87729 7.25893 2.07375 7.25893H7.25893V2.07375C7.25893 1.87729 7.33698 1.68888 7.47589 1.54997C7.61481 1.41105 7.80322 1.33301 7.99967 1.33301V1.33301Z" fill="#8F9BB3"/>
<path fill-rule="evenodd" clip-rule="evenodd" d="M7.25879 7.99953C7.25879 7.80307 7.33683 7.61466 7.47575 7.47575C7.61466 7.33683 7.80307 7.25879 7.99953 7.25879H13.9255C14.1219 7.25879 14.3103 7.33683 14.4492 7.47575C14.5882 7.61466 14.6662 7.80307 14.6662 7.99953C14.6662 8.19599 14.5882 8.3844 14.4492 8.52331C14.3103 8.66223 14.1219 8.74027 13.9255 8.74027H8.74027V13.9255C8.74027 14.1219 8.66223 14.3103 8.52331 14.4492C8.3844 14.5882 8.19599 14.6662 7.99953 14.6662C7.80307 14.6662 7.61466 14.5882 7.47575 14.4492C7.33683 14.3103 7.25879 14.1219 7.25879 13.9255V7.99953Z" fill="#8F9BB3"/>
</svg>
