<svg width="25" height="24" viewBox="0 0 25 24" fill="none" xmlns="http://www.w3.org/2000/svg">
<path d="M12.108 16.9922C12.2729 17.4335 11.9465 17.9038 11.4754 17.9038C11.193 17.9038 10.9405 17.7282 10.8422 17.4635L9.54635 13.9735C9.36946 13.487 9.1207 13.1609 8.80009 12.995C8.49052 12.8292 8.04829 12.7463 7.47339 12.7463H4.5215V17.2322C4.5215 17.6031 4.2208 17.9038 3.84986 17.9038C3.47893 17.9038 3.17822 17.6031 3.17822 17.2322V6.09622H7.8714C9.14281 6.09622 10.1157 6.37814 10.7901 6.94199C11.4756 7.50583 11.8183 8.31843 11.8183 9.37979C11.8183 10.1537 11.6138 10.806 11.2047 11.3367C10.8067 11.8563 10.2263 12.2267 9.46343 12.4478C9.80616 12.503 10.0991 12.6523 10.3424 12.8955C10.5856 13.1277 10.7901 13.4649 10.956 13.9071L12.108 16.9922ZM7.75531 11.6186C9.56846 11.6186 10.475 10.8778 10.475 9.39637C10.475 8.66669 10.2539 8.12496 9.81169 7.77117C9.36946 7.40633 8.684 7.22391 7.75531 7.22391H4.5215V11.6186H7.75531Z" fill="#2E3A59"/>
<path d="M22.3217 14.7031C22.3217 15.5876 22.0066 16.3283 21.3765 16.9254C20.7463 17.5224 19.9116 17.8817 18.8723 18.0033V19.2471C18.8723 19.5676 18.6125 19.8275 18.2919 19.8275C17.9713 19.8275 17.7115 19.5676 17.7115 19.2471V18.0199C16.9486 17.9757 16.2411 17.8264 15.5888 17.5721C15.0849 17.3723 14.6288 17.111 14.2205 16.7883C14.022 16.6315 13.9737 16.3554 14.0854 16.1284C14.2506 15.7925 14.6874 15.7043 14.9949 15.9177C15.3311 16.1509 15.6672 16.3375 16.0034 16.4776C16.5451 16.6987 17.131 16.8259 17.7612 16.859V12.6468C16.9984 12.4478 16.3682 12.2377 15.8707 12.0166C15.3732 11.7955 14.9531 11.4749 14.6103 11.0547C14.2787 10.6236 14.1128 10.0597 14.1128 9.3632C14.1128 8.75514 14.2621 8.20788 14.5606 7.72142C14.8701 7.23497 15.2958 6.84249 15.8375 6.54398C16.3793 6.23442 17.0039 6.04647 17.7115 5.98014V4.75294C17.7115 4.43238 17.9713 4.17252 18.2919 4.17252C18.6125 4.17252 18.8723 4.43238 18.8723 4.75294V5.99672C19.5136 6.052 20.1216 6.20678 20.6965 6.46106C21.1479 6.65695 21.5468 6.89877 21.8933 7.18651C22.0774 7.33947 22.118 7.60051 22.0123 7.81531C21.8453 8.15471 21.3958 8.23248 21.0876 8.01316C20.4172 7.53606 19.6622 7.25086 18.8226 7.15758V11.6186C19.5523 11.7955 20.1548 11.989 20.6302 12.199C21.1167 12.4091 21.5202 12.7186 21.8408 13.1277C22.1614 13.5257 22.3217 14.0509 22.3217 14.7031ZM15.5058 9.31345C15.5058 9.8773 15.6993 10.3085 16.0863 10.607C16.4732 10.9055 17.0315 11.1542 17.7612 11.3532V7.15758C17.0537 7.22391 16.5009 7.45055 16.1029 7.83751C15.7048 8.2134 15.5058 8.70539 15.5058 9.31345ZM18.8226 16.8259C19.497 16.7374 20.0166 16.5163 20.3814 16.1625C20.7573 15.7977 20.9453 15.3223 20.9453 14.7363C20.9453 14.2499 20.7629 13.874 20.398 13.6086C20.0332 13.3322 19.508 13.1001 18.8226 12.9121V16.8259Z" fill="#2E3A59"/>
</svg>
