<svg width="22" height="22" viewBox="0 0 22 22" fill="none" xmlns="http://www.w3.org/2000/svg">
<path fill-rule="evenodd" clip-rule="evenodd" d="M8.02474 7.534C8.28264 7.78372 8.28926 8.19523 8.03953 8.45312L5.5723 11.001L8.03861 13.5489C8.28829 13.8068 8.2816 14.2183 8.02366 14.468C7.76573 14.7177 7.35423 14.711 7.10455 14.453L4.20055 11.453C3.95656 11.201 3.95659 10.8008 4.20062 10.5488L7.10562 7.54879C7.35535 7.29089 7.76685 7.28427 8.02474 7.534Z" fill="black"/>
<path fill-rule="evenodd" clip-rule="evenodd" d="M4.01758 11.001C4.01758 10.642 4.30859 10.351 4.66758 10.351H13.6676C14.0266 10.351 14.3176 10.642 14.3176 11.001C14.3176 11.3599 14.0266 11.651 13.6676 11.651H4.66758C4.30859 11.651 4.01758 11.3599 4.01758 11.001Z" fill="black"/>
<path fill-rule="evenodd" clip-rule="evenodd" d="M7.51758 4.00069C7.51772 3.64171 7.80885 3.35081 8.16784 3.35095L15.6678 3.35395C17.1298 3.35528 18.3176 4.54043 18.3176 6.00395V15.999C18.3176 16.7018 18.0384 17.3758 17.5414 17.8728C17.0444 18.3698 16.3704 18.649 15.6676 18.649H8.16758C7.80859 18.649 7.51758 18.3579 7.51758 17.999C7.51758 17.64 7.80859 17.349 8.16758 17.349H15.6676C16.0256 17.349 16.369 17.2067 16.6222 16.9535C16.8753 16.7004 17.0176 16.357 17.0176 15.999V6.00395C17.0176 5.2595 16.413 4.65468 15.6671 4.65395C15.667 4.65395 15.6671 4.65395 15.6671 4.65395L8.16732 4.65095C7.80833 4.65081 7.51743 4.35968 7.51758 4.00069Z" fill="black"/>
</svg>
