<svg width="20" height="21" viewBox="0 0 20 21" fill="none" xmlns="http://www.w3.org/2000/svg">
<path d="M10 0.472656C8.1901 0.472656 6.51693 0.91862 4.98047 1.81055C3.44401 2.70247 2.22982 3.91667 1.33789 5.45312C0.445964 6.98958 0 8.66276 0 10.4727C0 12.2826 0.445964 13.9557 1.33789 15.4922C2.22982 17.0286 3.44401 18.2428 4.98047 19.1348C6.51693 20.0267 8.1901 20.4727 10 20.4727C11.8099 20.4727 13.4831 20.0267 15.0195 19.1348C16.556 18.2428 17.7702 17.0286 18.6621 15.4922C19.554 13.9557 20 12.2826 20 10.4727C20 8.66276 19.554 6.98958 18.6621 5.45312C17.7702 3.91667 16.556 2.70247 15.0195 1.81055C13.4831 0.91862 11.8099 0.472656 10 0.472656ZM10 19.2422C9.04948 19.2422 8.12825 19.0957 7.23633 18.8027C6.3444 18.5098 5.54036 18.0898 4.82422 17.543C4.10807 16.9961 3.47982 16.3646 2.93945 15.6484C2.39909 14.9323 1.98242 14.1283 1.68945 13.2363C1.39648 12.3444 1.25 11.4232 1.25 10.4727C1.25 9.28776 1.48112 8.15495 1.94336 7.07422C2.4056 5.99349 3.02734 5.0625 3.80859 4.28125C4.58984 3.5 5.52083 2.87826 6.60156 2.41602C7.68229 1.95378 8.8151 1.72266 10 1.72266C11.1849 1.72266 12.3177 1.95378 13.3984 2.41602C14.4792 2.87826 15.4102 3.5 16.1914 4.28125C16.9727 5.0625 17.5944 5.99349 18.0566 7.07422C18.5189 8.15495 18.75 9.28776 18.75 10.4727C18.75 11.6576 18.5189 12.7904 18.0566 13.8711C17.5944 14.9518 16.9727 15.8861 16.1914 16.6738C15.4102 17.4616 14.4792 18.0866 13.3984 18.5488C12.3177 19.0111 11.1849 19.2422 10 19.2422ZM13.5352 6.9375C13.418 6.82031 13.2715 6.76172 13.0957 6.76172C12.9199 6.76172 12.7734 6.82031 12.6562 6.9375L10 9.59375L7.34375 6.9375C7.22656 6.82031 7.08008 6.76172 6.9043 6.76172C6.72852 6.76172 6.58203 6.82031 6.46484 6.9375C6.34766 7.05469 6.28906 7.20117 6.28906 7.37695C6.28906 7.55273 6.34766 7.69922 6.46484 7.81641L9.12109 10.4727L6.46484 13.1289C6.38672 13.207 6.33138 13.2982 6.29883 13.4023C6.26628 13.5065 6.26628 13.6139 6.29883 13.7246C6.33138 13.8353 6.38672 13.9297 6.46484 14.0078C6.58203 14.125 6.72852 14.1836 6.9043 14.1836C7.08008 14.1836 7.22656 14.125 7.34375 14.0078L10 11.3516L12.6562 14.0078C12.7734 14.125 12.9199 14.1836 13.0957 14.1836C13.2715 14.1836 13.418 14.125 13.5352 14.0078C13.6133 13.9297 13.6686 13.8353 13.7012 13.7246C13.7337 13.6139 13.7337 13.5065 13.7012 13.4023C13.6686 13.2982 13.6133 13.207 13.5352 13.1289L10.8789 10.4727L13.5352 7.81641C13.6523 7.69922 13.7109 7.55273 13.7109 7.37695C13.7109 7.20117 13.6523 7.05469 13.5352 6.9375Z" fill="#2E3A59"/>
</svg>
