<svg width="48" height="48" viewBox="0 0 48 48" fill="none" xmlns="http://www.w3.org/2000/svg">
<circle opacity="0.2" cx="24" cy="24" r="24" fill="#FD4C4C"/>
<path fill-rule="evenodd" clip-rule="evenodd" d="M18.1074 18.1074C18.281 17.9338 18.5165 17.8362 18.7621 17.8362C19.0077 17.8362 19.2432 17.9338 19.4168 18.1074L24.6547 23.3453C24.8283 23.5189 24.9259 23.7544 24.9259 24C24.9259 24.2456 24.8283 24.4811 24.6547 24.6547L19.4168 29.8926C19.2432 30.0662 19.0077 30.1638 18.7621 30.1638C18.5165 30.1638 18.281 30.0662 18.1074 29.8926C17.9337 29.7189 17.8362 29.4834 17.8362 29.2378C17.8362 28.9923 17.9337 28.7567 18.1074 28.5831L22.6905 24L18.1074 19.4169C17.9337 19.2433 17.8362 19.0077 17.8362 18.7622C17.8362 18.5166 17.9337 18.2811 18.1074 18.1074Z" fill="#FD4C4C"/>
<path fill-rule="evenodd" clip-rule="evenodd" d="M23.3452 24.6547C23.1716 24.4811 23.074 24.2456 23.074 24C23.074 23.7544 23.1716 23.5189 23.3452 23.3453L28.583 18.1074C28.7567 17.9338 28.9922 17.8362 29.2378 17.8362C29.4833 17.8362 29.7189 17.9338 29.8925 18.1074C30.0661 18.2811 30.1637 18.5166 30.1637 18.7622C30.1637 19.0077 30.0661 19.2433 29.8925 19.4169L25.3094 24L29.8925 28.5831C30.0661 28.7567 30.1637 28.9923 30.1637 29.2378C30.1637 29.4834 30.0661 29.7189 29.8925 29.8926C29.7189 30.0662 29.4833 30.1638 29.2378 30.1638C28.9922 30.1638 28.7567 30.0662 28.583 29.8926L23.3452 24.6547Z" fill="#FD4C4C"/>
</svg>
