<svg width="24" height="20" viewBox="0 0 24 20" fill="none" xmlns="http://www.w3.org/2000/svg">
<path fill-rule="evenodd" clip-rule="evenodd" d="M6.1074 4.10744C6.28104 3.9338 6.51656 3.83625 6.76213 3.83625C7.0077 3.83625 7.24321 3.9338 7.41686 4.10744L12.6547 9.34527C12.8283 9.51892 12.9259 9.75443 12.9259 10C12.9259 10.2456 12.8283 10.4811 12.6547 10.6547L7.41686 15.8926C7.24321 16.0662 7.0077 16.1638 6.76213 16.1638C6.51656 16.1638 6.28104 16.0662 6.1074 15.8926C5.93375 15.7189 5.8362 15.4834 5.8362 15.2378C5.8362 14.9923 5.93375 14.7567 6.1074 14.5831L10.6905 10L6.1074 5.4169C5.93375 5.24326 5.8362 5.00774 5.8362 4.76217C5.8362 4.5166 5.93375 4.28109 6.1074 4.10744Z" fill="#C5CEE0"/>
<path fill-rule="evenodd" clip-rule="evenodd" d="M11.3452 10.6547C11.1715 10.4811 11.074 10.2456 11.074 10C11.074 9.75443 11.1715 9.51892 11.3452 9.34527L16.583 4.10744C16.7566 3.9338 16.9921 3.83625 17.2377 3.83625C17.4833 3.83625 17.7188 3.9338 17.8924 4.10744C18.0661 4.28109 18.1636 4.5166 18.1636 4.76217C18.1636 5.00774 18.0661 5.24326 17.8924 5.4169L13.3093 10L17.8924 14.5831C18.0661 14.7567 18.1636 14.9923 18.1636 15.2378C18.1636 15.4834 18.0661 15.7189 17.8924 15.8926C17.7188 16.0662 17.4833 16.1638 17.2377 16.1638C16.9921 16.1638 16.7566 16.0662 16.583 15.8926L11.3452 10.6547Z" fill="#C5CEE0"/>
</svg>
