<svg width="18" height="17" viewBox="0 0 18 17" fill="none" xmlns="http://www.w3.org/2000/svg">
<path d="M16.3423 0.966864C16.0608 0.696213 15.7658 0.490518 15.4573 0.34978C15.1487 0.209041 14.8267 0.138672 14.4911 0.138672C13.7441 0.138672 13.0729 0.436388 12.4774 1.03182C12.2826 1.21586 8.85612 4.6423 2.1981 11.3111C2.13315 11.3761 2.08443 11.4519 2.05195 11.5385C2.00865 11.7225 1.55395 13.2436 0.687871 16.1017C0.633741 16.3074 0.682458 16.486 0.834023 16.6376C0.844849 16.6592 0.861088 16.6754 0.88274 16.6863C0.904392 16.6971 0.923337 16.7079 0.939576 16.7187C0.955815 16.7296 0.974761 16.7404 0.996413 16.7512C1.01807 16.7621 1.03972 16.7702 1.06137 16.7756L1.12633 16.7918L1.19128 16.7999C1.25624 16.7999 1.31037 16.7891 1.35367 16.7675C3.63797 16.0205 5.13196 15.5441 5.83565 15.3384C5.87896 15.3276 5.91955 15.3114 5.95744 15.2897C5.99534 15.2681 6.03052 15.241 6.063 15.2085C7.29717 13.9852 9.26209 12.0392 11.9578 9.37057C14.6535 6.70196 16.1312 5.23232 16.391 4.96167C17.0298 4.30128 17.3437 3.61924 17.3329 2.91555C17.3113 2.22268 16.9811 1.57312 16.3423 0.966864ZM12.315 2.6882C12.8563 2.81812 13.3652 3.12124 13.8415 3.59759C14.0364 3.79246 14.2015 4.01439 14.3368 4.26339C14.4721 4.51239 14.5587 4.69914 14.5966 4.82364C14.6345 4.94814 14.6643 5.06452 14.6859 5.17278C13.2244 6.62347 10.3609 9.45989 6.09548 13.682C5.87896 13.184 5.58124 12.7402 5.20233 12.3504C4.74763 11.8957 4.23881 11.5547 3.67586 11.3274L3.6921 11.3111L3.70834 11.2949L3.72457 11.2787V11.2624H3.74081L3.75705 11.2462L3.77329 11.2299V11.2137H3.78953L3.80577 11.1975L3.82201 11.1812V11.165H3.83825L3.85449 11.1488L3.87073 11.1325V11.1163H3.88697L3.9032 11.1L3.91944 11.0838L3.93568 11.0676V11.0513H3.95192L3.96816 11.0351L3.9844 11.0188V11.0026H4.00064L4.01688 10.9864L4.03312 10.9701L4.04936 10.9539V10.9376H4.06559L4.08183 10.9214L4.09807 10.9052L4.11431 10.8889V10.8727L4.13055 10.8564H4.14679L4.16303 10.8402L4.17927 10.824L4.19551 10.8077V10.7915L4.21175 10.7753H4.22799L4.24422 10.759L4.26046 10.7428L4.2767 10.7265V10.7103L4.29294 10.6941H4.30918L4.32542 10.6778L4.34166 10.6616L4.3579 10.6453L4.37414 10.6291V10.6129L4.39038 10.5966H4.40661L4.42285 10.5804L4.43909 10.5641L4.45533 10.5479L4.47157 10.5317L4.48781 10.5154V10.4992H4.50405L4.52029 10.4829L4.53653 10.4667L4.55277 10.4505L4.56901 10.4342L4.58524 10.418L4.60148 10.4018V10.3855L4.61772 10.3693H4.63396L4.6502 10.353L4.66644 10.3368L4.68268 10.3206L4.69892 10.3043L4.71516 10.2881L4.7314 10.2718L4.74763 10.2556V10.2394L4.76387 10.2231H4.78011L4.79635 10.2069L4.81259 10.1906L4.82883 10.1744L4.84507 10.1582L4.86131 10.1419L4.87755 10.1257L4.89379 10.1095L4.91003 10.0932L4.92626 10.077V10.0607L4.9425 10.0445L4.95874 10.0283H4.97498L4.99122 10.012L5.00746 9.99578L5.0237 9.97954L5.03994 9.9633L5.05618 9.94706L5.07242 9.93082L5.08865 9.91458L5.10489 9.89834L5.12113 9.8821L5.13737 9.86587L5.15361 9.84963V9.83339L5.16985 9.81715L5.18609 9.80091L5.20233 9.78467H5.21857L5.23481 9.76843L5.25105 9.75219L5.26728 9.73595L5.28352 9.71971L5.29976 9.70347L5.316 9.68724L5.33224 9.671L5.34848 9.65476L5.36472 9.63852L5.38096 9.62228L5.3972 9.60604L5.41344 9.5898L5.42968 9.57356L5.44591 9.55732L5.46215 9.54108L5.47839 9.52485L5.49463 9.50861L5.51087 9.49237L5.52711 9.47613V9.45989L5.54335 9.44365L5.55959 9.42741L5.57583 9.41117L5.59207 9.39493L5.6083 9.37869L5.62454 9.36245L5.64078 9.34622L5.65702 9.32998L5.67326 9.31374H5.6895L5.70574 9.2975L5.72198 9.28126L5.73822 9.26502L5.75446 9.24878L5.7707 9.23254L5.78693 9.2163L5.80317 9.20006L5.81941 9.18383L5.83565 9.16759L5.85189 9.15135L5.86813 9.13511L5.88437 9.11887L5.90061 9.10263L5.91685 9.08639L5.93309 9.07015L5.94932 9.05391L5.96556 9.03767L5.9818 9.02143L5.99804 9.0052L6.01428 8.98896L6.03052 8.97272L6.04676 8.95648L6.063 8.94024L6.07924 8.924L6.11172 8.89152L6.12795 8.87528L6.14419 8.85904L6.16043 8.8428L6.17667 8.82657L6.19291 8.81033L6.20915 8.79409L6.22539 8.77785L6.24163 8.76161L6.25787 8.74537L6.27411 8.72913L6.29035 8.71289L6.30658 8.69665L6.32282 8.66418L6.33906 8.64794L6.3553 8.6317L6.37154 8.61546L6.38778 8.59922L6.42026 8.58298L6.4365 8.56674L6.45274 8.5505L6.46897 8.53426L6.48521 8.51802L6.50145 8.50179L6.51769 8.48555L6.53393 8.46931L6.55017 8.45307L6.56641 8.43683L6.58265 8.42059L6.59889 8.38811L6.61513 8.37187L6.63137 8.35563L6.66384 8.33939L6.68008 8.32316L6.69632 8.30692L6.71256 8.29068L6.7288 8.27444L6.74504 8.2582L6.76128 8.24196L6.77752 8.22572L6.79376 8.20948L6.80999 8.177L6.82623 8.16076L6.84247 8.14453L6.87495 8.12829L6.89119 8.11205L6.90743 8.09581L6.92367 8.07957L6.93991 8.06333L6.95615 8.04709L6.97239 8.03085L6.98862 7.99837L7.00486 7.98214L7.0211 7.9659L7.05358 7.94966L7.06982 7.93342L7.08606 7.91718L7.1023 7.90094L7.11854 7.8847L7.13478 7.86846L7.15101 7.85222L7.16725 7.81974L7.18349 7.80351L7.21597 7.78727L7.23221 7.77103L7.24845 7.75479L7.26469 7.73855L7.28093 7.72231L7.29717 7.70607L7.31341 7.67359L7.32964 7.65735L7.34588 7.64112L7.37836 7.62488L7.3946 7.60864L7.41084 7.5924L7.42708 7.57616L7.44332 7.55992L7.45956 7.52744L7.4758 7.5112L7.49203 7.49496L7.52451 7.47872L7.54075 7.46249L7.55699 7.44625L7.57323 7.43001L7.58947 7.41377L7.60571 7.38129L7.62195 7.36505L7.65443 7.34881L7.67066 7.33257L7.6869 7.31633L7.70314 7.3001L7.71938 7.28386L7.73562 7.25138L7.75186 7.23514L7.78434 7.2189L7.80058 7.20266L7.81682 7.18642L7.83306 7.17018L7.84929 7.15394L7.86553 7.12147L7.88177 7.10523L7.91425 7.08899L7.93049 7.07275L7.94673 7.05651L7.96297 7.04027L7.97921 7.02403L7.99545 6.99155L8.01168 6.97531L8.04416 6.95907L8.0604 6.94284L8.07664 6.9266L8.09288 6.91036L8.10912 6.89412L8.12536 6.86164L8.1416 6.8454L8.17408 6.82916L8.19031 6.81292L8.20655 6.79668L8.22279 6.78045L8.23903 6.74797L8.25527 6.73173L8.28775 6.71549L8.30399 6.69925L8.32023 6.68301L8.33647 6.66677L8.35271 6.63429L8.36894 6.61805L8.40142 6.60182L8.41766 6.58558L8.4339 6.56934L8.45014 6.5531L8.46638 6.52062L8.48262 6.50438L8.5151 6.48814L8.53133 6.4719L8.54757 6.45566L8.56381 6.43942L8.58005 6.40695L8.59629 6.39071L8.62877 6.37447L8.64501 6.35823L8.66125 6.34199L8.67749 6.32575L8.69372 6.29327L8.70996 6.27703L8.74244 6.2608L8.75868 6.24456L8.77492 6.22832L8.79116 6.21208L8.8074 6.1796L8.82364 6.16336L8.85612 6.14712L8.87235 6.13088L8.88859 6.11464L8.90483 6.0984L8.92107 6.06593L8.95355 6.04969L8.96979 6.03345L8.98603 6.01721L9.00227 6.00097L9.01851 5.96849L9.03475 5.95225L9.06722 5.93601L9.08346 5.91978L9.0997 5.90354L9.11594 5.8873L9.13218 5.85482L9.16466 5.83858L9.1809 5.82234L9.19714 5.8061L9.21338 5.78986L9.22961 5.75738L9.24585 5.74115L9.27833 5.72491L9.29457 5.70867L9.31081 5.69243L9.32705 5.67619L9.34329 5.64371L9.37577 5.62747L9.392 5.61123L9.40824 5.59499L9.42448 5.57875L9.44072 5.54628L9.45696 5.53004L9.48944 5.5138L9.50568 5.49756L9.52192 5.48132L9.53816 5.46508L9.55439 5.4326L9.58687 5.41636L9.60311 5.40013L9.61935 5.38389L9.63559 5.36765L9.65183 5.33517L9.66807 5.31893L9.70055 5.30269L9.71679 5.28645L9.73302 5.27021L9.74926 5.25397L9.7655 5.2215L9.79798 5.20526L9.81422 5.18902L9.83046 5.17278L9.8467 5.15654L9.86294 5.12406L9.87918 5.10782L9.91165 5.09158L9.92789 5.07534L9.94413 5.05911L9.96037 5.04287L9.97661 5.01039L10.0091 4.99415L10.0253 4.97791L10.0416 4.96167L10.0578 4.94543L10.074 4.91295L10.0903 4.89671L10.1228 4.88048L10.139 4.86424L10.1552 4.848L10.1715 4.83176L10.1877 4.79928L10.2202 4.78304L10.2364 4.7668L10.2527 4.75056L10.2689 4.73432L10.2852 4.70185L10.3014 4.68561L10.3339 4.66937L10.3501 4.65313L10.3663 4.63689L10.3826 4.62065L10.3988 4.58817L10.4151 4.57193L10.4475 4.55569L10.4638 4.53946L10.48 4.52322L10.4963 4.50698L10.5125 4.4745L10.545 4.45826L10.5612 4.44202L10.5775 4.42578L10.5937 4.40954L10.6099 4.37707L10.6262 4.36083L10.6587 4.34459L10.6749 4.32835L10.6911 4.31211L10.7074 4.29587L10.7236 4.26339L10.7398 4.24715L10.7723 4.23091L10.7886 4.21467L10.8048 4.19844L10.821 4.1822L10.8373 4.16596L10.8535 4.13348L10.8698 4.11724L10.9022 4.101L10.9185 4.08476L10.9347 4.06852L10.951 4.05228L10.9672 4.01981L10.9834 4.00357L11.0159 3.98733L11.0321 3.97109L11.0484 3.95485L11.0646 3.93861L11.0809 3.92237L11.0971 3.88989L11.1133 3.87365L11.1458 3.85742L11.1621 3.84118L11.1783 3.82494L11.1945 3.8087L11.2108 3.79246L11.227 3.75998L11.2433 3.74374L11.2757 3.7275L11.292 3.71126L11.3082 3.69502L11.3245 3.67879L11.3407 3.66255L11.3569 3.63007L11.3732 3.61383L11.3894 3.59759L11.4219 3.58135L11.4381 3.56511L11.4544 3.54887L11.4706 3.53263L11.4868 3.5164L11.5031 3.48392L11.5193 3.46768L11.5356 3.45144L11.568 3.4352L11.5843 3.41896L11.6005 3.40272L11.6168 3.38648L11.633 3.37024L11.6492 3.354L11.6655 3.32153L11.6817 3.30529L11.698 3.28905L11.7142 3.27281L11.7467 3.25657L11.7629 3.24033L11.7791 3.22409L11.7954 3.20785L11.8116 3.19161L11.8279 3.17537L11.8441 3.15914L11.8603 3.1429L11.8766 3.11042L11.8928 3.09418L11.9091 3.07794L11.9253 3.0617L11.9578 3.04546L11.974 3.02922L11.9903 3.01298L12.0065 2.99675L12.0227 2.98051L12.039 2.96427L12.0552 2.94803L12.0714 2.93179L12.0877 2.91555L12.1039 2.89931L12.1202 2.88307L12.1364 2.86683L12.1526 2.85059L12.1689 2.83435L12.1851 2.81812L12.2014 2.80188L12.2176 2.7694L12.2338 2.75316L12.2501 2.73692L12.2663 2.72068L12.2826 2.70444L12.315 2.6882ZM2.96134 12.2043C3.49181 12.345 3.98981 12.6482 4.45533 13.1137C4.82342 13.4818 5.08324 13.9148 5.23481 14.4128C5.01829 14.4886 4.50134 14.6618 3.68398 14.9325C2.86661 15.2031 2.2793 15.398 1.92204 15.5171C2.01947 15.1923 2.1981 14.6266 2.45793 13.8201C2.71775 13.0135 2.88556 12.4749 2.96134 12.2043ZM15.6278 4.21467C15.6278 4.2255 15.6224 4.23633 15.6116 4.24715L15.5791 4.27963L15.5304 4.32835C15.3138 3.76539 14.9999 3.27281 14.5885 2.85059C14.1555 2.41755 13.6737 2.08736 13.1432 1.86001L13.1919 1.81129L13.2244 1.77882C13.2786 1.72469 13.3462 1.66514 13.4274 1.60019C13.5086 1.53523 13.6548 1.45404 13.8659 1.3566C14.077 1.25917 14.2854 1.21045 14.4911 1.21045C14.6859 1.21045 14.8781 1.25375 15.0676 1.34036C15.257 1.42697 15.4383 1.55688 15.6116 1.7301C15.8281 1.93579 15.9932 2.14149 16.1069 2.34718C16.2205 2.55288 16.2774 2.75316 16.2774 2.94803C16.2774 3.34859 16.0608 3.77081 15.6278 4.21467Z" fill="#2E3A59"/>
</svg>
