<svg width="20" height="20" viewBox="0 0 20 20" fill="none" xmlns="http://www.w3.org/2000/svg">
<path d="M16.1497 13.2616L15.8235 12.8539L15.5055 12.4299L15.1957 11.9488L14.9511 11.4596L14.7635 10.9214L14.6983 10.4077V6.99937C14.6983 6.27095 14.5678 5.57786 14.3069 4.92011C14.046 4.26236 13.6954 3.69702 13.2551 3.22409C12.8147 2.75116 12.2847 2.37336 11.665 2.09069C11.0453 1.80802 10.3876 1.66669 9.69178 1.66669C8.77854 1.66669 7.93868 1.90587 7.17221 2.38423C6.40574 2.8626 5.80507 3.50948 5.37019 4.32487C4.93531 5.14027 4.71787 6.03177 4.71787 6.99937V10.4077C4.71787 10.6034 4.69069 10.8018 4.63633 11.003C4.58197 11.2041 4.48413 11.4215 4.34279 11.6553C4.20146 11.889 4.09274 12.063 4.01663 12.1771C3.94053 12.2913 3.7992 12.4843 3.59263 12.7561C3.38606 13.0279 3.26647 13.1801 3.23386 13.2127L2.94031 13.6285L2.712 13.9873L2.54077 14.3461L2.5 14.6641L2.58154 15.0065C2.76636 15.3653 3.21755 15.5447 3.93509 15.5447H6.91944C6.91944 16.3166 7.19124 16.9744 7.73483 17.518C8.27843 18.0616 8.93618 18.3334 9.70809 18.3334C10.48 18.3334 11.1377 18.0616 11.6813 17.518C12.2249 16.9744 12.4967 16.3166 12.4967 15.5447H15.5463C16.2639 15.5447 16.7042 15.3653 16.8673 15.0065C16.9107 14.9304 16.9352 14.8516 16.9406 14.7701C16.9461 14.6885 16.9461 14.6152 16.9406 14.5499C16.9352 14.4847 16.9107 14.4059 16.8673 14.3135C16.8238 14.221 16.7857 14.1422 16.7531 14.077C16.7205 14.0118 16.6634 13.9248 16.5819 13.8161C16.5003 13.7073 16.4324 13.6204 16.378 13.5551C16.3237 13.4899 16.2476 13.3921 16.1497 13.2616ZM9.70809 17.2407C9.47978 17.2407 9.26234 17.1945 9.05577 17.1021C8.84921 17.0097 8.66982 16.8901 8.51761 16.7433C8.36541 16.5966 8.2431 16.4172 8.15068 16.2052C8.05827 15.9932 8.01207 15.773 8.01207 15.5447H11.4041C11.4041 16.0122 11.2383 16.4117 10.9067 16.7433C10.5751 17.0749 10.1756 17.2407 9.70809 17.2407ZM15.5463 14.4358H3.7394C3.80463 14.327 3.93509 14.1422 4.13079 13.8813C4.14166 13.8596 4.25038 13.7128 4.45695 13.441C4.66351 13.1692 4.79941 12.9898 4.86464 12.9028C4.92988 12.8159 5.04403 12.6392 5.20711 12.3728C5.37019 12.1065 5.48163 11.8917 5.54142 11.7287C5.60122 11.5656 5.66373 11.359 5.72896 11.109C5.79419 10.8589 5.82681 10.6252 5.82681 10.4077V6.99937C5.82681 5.8252 6.19917 4.8277 6.9439 4.00687C7.68863 3.18604 8.60459 2.77562 9.69178 2.77562C10.0071 2.77562 10.3115 2.81368 10.605 2.88978C10.8986 2.96588 11.1731 3.07188 11.4286 3.20778C11.6841 3.34368 11.9232 3.50948 12.1461 3.70517C12.369 3.90087 12.5701 4.12103 12.7495 4.36564C12.9289 4.61026 13.0811 4.86847 13.2061 5.14027C13.3312 5.41207 13.4263 5.70561 13.4915 6.02089C13.5568 6.33618 13.5894 6.66234 13.5894 6.99937V10.4077C13.5894 10.7447 13.6383 11.0845 13.7361 11.427C13.834 11.7694 13.9835 12.1037 14.1846 12.4299C14.3857 12.7561 14.5597 13.0197 14.7065 13.2208C14.8532 13.422 15.0462 13.6693 15.2854 13.9628L15.3588 14.0607L15.4322 14.1504L15.5137 14.2482L15.5871 14.3379L15.6605 14.4358H15.5463Z" fill="#EDF1F7"/>
</svg>
