<svg width="28" height="29" viewBox="0 0 28 29" fill="none" xmlns="http://www.w3.org/2000/svg">
<path fill-rule="evenodd" clip-rule="evenodd" d="M14.7001 22.4877L14.7001 8.02105L16.5328 8.02105L18.8361 9.11954C18.9302 9.16442 19.0332 9.18771 19.1375 9.18771H19.895C19.8608 9.22601 19.8305 9.26841 19.8049 9.31442L16.8882 14.5644C16.8158 14.6947 16.7869 14.8447 16.8057 14.9926L17.5001 14.9044C16.8057 14.9926 16.8057 14.9926 16.8057 14.9926L16.806 14.9948L16.8063 14.9971L16.807 15.0022L16.8088 15.0145C16.8102 15.0236 16.8119 15.0345 16.8142 15.047C16.8186 15.0719 16.825 15.1036 16.8338 15.141C16.8515 15.2157 16.8796 15.3142 16.9234 15.4286C17.0111 15.6571 17.1639 15.9533 17.427 16.2467C17.9722 16.8546 18.9029 17.3544 20.4168 17.3544C21.9307 17.3544 22.8614 16.8546 23.4066 16.2467C23.6697 15.9533 23.8225 15.6571 23.9102 15.4286C23.954 15.3142 23.9821 15.2157 23.9998 15.141C24.0086 15.1036 24.015 15.0719 24.0194 15.047C24.0217 15.0345 24.0234 15.0236 24.0248 15.0145L24.0266 15.0022L24.0273 14.9971L24.0276 14.9948C24.0276 14.9948 24.0279 14.9926 23.3335 14.9044L24.0279 14.9926C24.0467 14.8447 24.0178 14.6947 23.9454 14.5644L21.0287 9.31442C21.0031 9.26841 20.9728 9.22601 20.9386 9.18771H21.5837C21.9703 9.18771 22.2837 8.87431 22.2837 8.48771C22.2837 8.10111 21.9703 7.78771 21.5837 7.78771H19.2958L16.9925 6.68923C16.8984 6.64434 16.7955 6.62105 16.6912 6.62105L14.7001 6.62105V5.75859C14.7001 5.37199 14.3867 5.05859 14.0001 5.05859C13.6135 5.05859 13.3001 5.37199 13.3001 5.75859V6.62105L11.7987 6.62105C11.6945 6.62105 11.5915 6.64434 11.4974 6.68922L9.19413 7.78771L6.41702 7.78771C6.03043 7.78771 5.71703 8.10111 5.71703 8.48771C5.71703 8.87431 6.03043 9.18771 6.41702 9.18771H7.06168C7.02743 9.22601 6.99712 9.2684 6.97155 9.31442L4.05489 14.5644C3.98249 14.6947 3.95359 14.8447 3.97238 14.9926L4.6668 14.9044C3.97238 14.9926 3.97238 14.9926 3.97238 14.9926L3.97266 14.9948L3.97296 14.9971L3.97366 15.0022L3.97546 15.0145C3.97684 15.0236 3.9786 15.0345 3.98083 15.047C3.98529 15.0719 3.99162 15.1036 4.00049 15.141C4.01819 15.2157 4.04623 15.3142 4.0901 15.4286C4.17777 15.6571 4.33053 15.9533 4.59367 16.2467C5.13885 16.8546 6.06958 17.3544 7.58346 17.3544C9.09735 17.3544 10.0281 16.8546 10.5733 16.2467C10.8364 15.9533 10.9892 15.6571 11.0768 15.4286C11.1207 15.3142 11.1487 15.2157 11.1664 15.141C11.1753 15.1036 11.1816 15.0719 11.1861 15.047C11.1883 15.0345 11.1901 15.0236 11.1915 15.0145L11.1933 15.0022L11.194 14.9971L11.1943 14.9948C11.1943 14.9948 11.1945 14.9926 10.5001 14.9044L11.1945 14.9926C11.2133 14.8447 11.1844 14.6947 11.112 14.5644L8.19537 9.31442C8.16981 9.2684 8.1395 9.22601 8.10525 9.18771H9.35251C9.45678 9.18771 9.55973 9.16442 9.65384 9.11953L11.9571 8.02105L13.3001 8.02105V22.4877H10.0336C9.64698 22.4877 9.33358 22.8011 9.33358 23.1877C9.33358 23.5743 9.64698 23.8877 10.0336 23.8877H17.9669C18.3535 23.8877 18.6669 23.5743 18.6669 23.1877C18.6669 22.8011 18.3535 22.4877 17.9669 22.4877H14.7001ZM5.42198 14.9864C5.46379 15.0791 5.53058 15.1946 5.6359 15.312C5.87547 15.5791 6.40308 15.9544 7.58346 15.9544C8.76385 15.9544 9.29146 15.5791 9.53103 15.312C9.63635 15.1946 9.70314 15.0791 9.74495 14.9864L7.58346 11.0958L5.42198 14.9864ZM18.4692 15.312C18.3639 15.1946 18.2971 15.0791 18.2553 14.9864L20.4168 11.0958L22.5783 14.9864C22.5365 15.0791 22.4697 15.1946 22.3644 15.312C22.1248 15.5791 21.5972 15.9544 20.4168 15.9544C19.2364 15.9544 18.7088 15.5791 18.4692 15.312Z" fill="currentColor"/>
</svg>
