<svg width="16" height="16" viewBox="0 0 16 16" fill="none" xmlns="http://www.w3.org/2000/svg">
<path fill-rule="evenodd" clip-rule="evenodd" d="M6.00556 3.87408C6.06199 3.93038 6.10677 3.99725 6.13732 4.07087C6.16787 4.1445 6.18359 4.22343 6.18359 4.30314C6.18359 4.38285 6.16787 4.46178 6.13732 4.5354C6.10677 4.60902 6.06199 4.6759 6.00556 4.73219L2.79735 7.93919L6.00556 11.1462C6.11935 11.26 6.18328 11.4143 6.18328 11.5752C6.18328 11.7362 6.11935 11.8905 6.00556 12.0043C5.89176 12.1181 5.73743 12.182 5.5765 12.182C5.41558 12.182 5.26124 12.1181 5.14745 12.0043L1.5114 8.36824C1.45496 8.31195 1.41019 8.24508 1.37964 8.17145C1.34908 8.09783 1.33336 8.0189 1.33336 7.93919C1.33336 7.85948 1.34908 7.78055 1.37964 7.70692C1.41019 7.6333 1.45496 7.56643 1.5114 7.51013L5.14745 3.87408C5.20374 3.81765 5.27062 3.77287 5.34424 3.74232C5.41786 3.71177 5.49679 3.69604 5.5765 3.69604C5.65621 3.69604 5.73514 3.71177 5.80876 3.74232C5.88239 3.77287 5.94926 3.81765 6.00556 3.87408V3.87408Z" fill="#8F9BB3"/>
<path fill-rule="evenodd" clip-rule="evenodd" d="M14.667 7.93926C14.667 8.09998 14.6031 8.25412 14.4895 8.36777C14.3758 8.48142 14.2217 8.54527 14.061 8.54527L3.15283 8.54527C2.9921 8.54527 2.83796 8.48142 2.72431 8.36777C2.61067 8.25413 2.54682 8.09998 2.54682 7.93926C2.54682 7.77854 2.61067 7.6244 2.72431 7.51075C2.83796 7.3971 2.9921 7.33325 3.15283 7.33325L14.061 7.33325C14.2217 7.33325 14.3758 7.3971 14.4895 7.51075C14.6031 7.6244 14.667 7.77854 14.667 7.93926V7.93926Z" fill="#8F9BB3"/>
</svg>
