<svg width="44" height="44" viewBox="0 0 44 44" fill="none" xmlns="http://www.w3.org/2000/svg">
<circle cx="22.0001" cy="22" r="18.3333" fill="#F7F9FC"/>
<path d="M28.5703 27.1836L24.6445 25.0156C25.2956 24.4948 25.7676 23.7852 26.0605 22.8867C26.3535 21.9883 26.5 21.1354 26.5 20.3281V17.6914C26.5 17.1185 26.2754 16.5456 25.8262 15.9727C25.377 15.3997 24.7878 14.9277 24.0586 14.5566C23.3294 14.1855 22.5872 14 21.832 14C21.3893 14 20.9336 14.0716 20.4648 14.2148C19.9961 14.3581 19.5664 14.5534 19.1758 14.8008C18.7852 15.0482 18.4336 15.3249 18.1211 15.6309C17.8086 15.9368 17.5645 16.2721 17.3887 16.6367C17.2129 17.0013 17.125 17.3529 17.125 17.6914V20.3281C17.125 21.0573 17.2878 21.8841 17.6133 22.8086C17.9388 23.7331 18.4336 24.4622 19.0977 24.9961L15.0547 27.1836C14.9766 27.2227 14.8789 27.2747 14.7617 27.3398C14.6445 27.4049 14.4883 27.5286 14.293 27.7109C14.0977 27.8932 14 28.069 14 28.2383V29.8203C14 30.1198 14.1042 30.3704 14.3125 30.5723C14.5208 30.7741 14.7682 30.875 15.0547 30.875H28.5703C28.8568 30.875 29.1042 30.7741 29.3125 30.5723C29.5208 30.3704 29.625 30.1198 29.625 29.8203V28.2383C29.625 28.1602 29.6055 28.0788 29.5664 27.9941C29.5273 27.9095 29.4785 27.8346 29.4199 27.7695C29.3613 27.7044 29.293 27.6393 29.2148 27.5742C29.1367 27.5091 29.0586 27.4538 28.9805 27.4082C28.9023 27.3626 28.834 27.3236 28.7754 27.291C28.7168 27.2585 28.668 27.2357 28.6289 27.2227L28.5703 27.1836ZM28.375 29.625H15.25V28.5117C15.3542 28.4336 15.4583 28.375 15.5625 28.3359L15.6406 28.2969L19.6836 26.0898C19.7487 26.0638 19.8073 26.028 19.8594 25.9824C19.9115 25.9368 19.9603 25.8913 20.0059 25.8457C20.0514 25.8001 20.0938 25.748 20.1328 25.6895C20.1719 25.6309 20.2044 25.569 20.2305 25.5039C20.2565 25.4388 20.2793 25.3737 20.2988 25.3086C20.3184 25.2435 20.3281 25.1784 20.3281 25.1133C20.3672 24.6706 20.2174 24.306 19.8789 24.0195C19.6315 23.8242 19.4069 23.5638 19.2051 23.2383C19.0033 22.9128 18.8438 22.5742 18.7266 22.2227C18.6094 21.8711 18.5215 21.5326 18.4629 21.207C18.4043 20.8815 18.375 20.5885 18.375 20.3281V17.6914C18.375 17.1966 18.7428 16.666 19.4785 16.0996C20.2142 15.5332 20.9987 15.25 21.832 15.25C22.6914 15.25 23.4759 15.5299 24.1855 16.0898C24.8952 16.6497 25.25 17.1836 25.25 17.6914V20.3281C25.25 20.9661 25.1393 21.6465 24.918 22.3691C24.6966 23.0918 24.3451 23.6419 23.8633 24.0195C23.5117 24.306 23.3555 24.6706 23.3945 25.1133C23.4336 25.556 23.6484 25.888 24.0391 26.1094L27.9648 28.2773L28.082 28.3359C28.1732 28.375 28.2708 28.4336 28.375 28.5117V29.625Z" fill="#8F9BB3"/>
</svg>
