<svg width="28" height="29" viewBox="0 0 28 29" fill="none" xmlns="http://www.w3.org/2000/svg">
<path d="M14.127 11.3838C13.1658 11.1339 12.8567 10.8756 12.8567 10.4733C12.8567 10.0117 13.2843 9.68992 14 9.68992C14.6013 9.68992 14.902 9.91859 15.0121 10.2828C15.0629 10.4521 15.2026 10.5792 15.3805 10.5792H15.5075C15.787 10.5792 15.986 10.3039 15.8886 10.0414C15.7108 9.54171 15.2958 9.12672 14.6352 8.96581V8.67362C14.6352 8.32215 14.3515 8.03843 14 8.03843C13.6485 8.03843 13.3648 8.32215 13.3648 8.67362V8.9531C12.5433 9.13095 11.8827 9.66451 11.8827 10.4818C11.8827 11.46 12.6915 11.947 13.873 12.2307C14.9316 12.4847 15.1433 12.8574 15.1433 13.2512C15.1433 13.5434 14.9358 14.0092 14 14.0092C13.3013 14.0092 12.9413 13.7594 12.8016 13.4037C12.7381 13.2385 12.5941 13.1199 12.4205 13.1199H12.3019C12.0182 13.1199 11.8192 13.4079 11.925 13.6704C12.1664 14.259 12.7296 14.6063 13.3648 14.7418V15.0255C13.3648 15.377 13.6485 15.6607 14 15.6607C14.3515 15.6607 14.6352 15.377 14.6352 15.0255V14.7502C15.4609 14.5936 16.1173 14.1151 16.1173 13.247C16.1173 12.0443 15.0883 11.6336 14.127 11.3838Z" fill="currentColor"/>
<path d="M21.702 12.3934C21.264 12.3934 20.8891 12.5494 20.5773 12.8612C20.2654 13.1731 20.1095 13.548 20.1095 13.9859C20.1095 14.1452 20.1427 14.3177 20.209 14.5035L16.3273 17.8478C16.022 17.6089 15.6903 17.4894 15.332 17.4894C14.9073 17.4894 14.5357 17.6421 14.2172 17.9473L11.1715 16.4145C11.145 16.0031 10.9824 15.6547 10.6838 15.3694C10.3852 15.0841 10.0236 14.9414 9.59893 14.9414C9.30697 14.9414 9.03824 15.0111 8.79272 15.1504C8.54721 15.2898 8.35478 15.4822 8.21544 15.7277C8.0761 15.9732 8.00642 16.242 8.00642 16.5339C8.00642 16.7595 8.05951 16.9851 8.16567 17.2108L5.06029 20.774C4.87449 20.7076 4.6887 20.6745 4.50291 20.6745C4.06497 20.6745 3.69007 20.8304 3.3782 21.1423C3.06633 21.4541 2.9104 21.829 2.9104 22.267C2.9104 22.7049 3.06633 23.0798 3.3782 23.3917C3.69007 23.7035 4.06497 23.8595 4.50291 23.8595C4.94085 23.8595 5.31575 23.7035 5.62762 23.3917C5.93948 23.0798 6.09541 22.7049 6.09541 22.267C6.09541 22.0679 6.0556 21.8688 5.97598 21.6698L9.12118 18.0468C9.2937 18.0999 9.45295 18.1264 9.59893 18.1264C9.82454 18.1264 10.0369 18.08 10.2359 17.9871C10.435 17.8942 10.6142 17.7681 10.7734 17.6089L13.7394 19.1019C13.7394 19.3142 13.7826 19.5166 13.8688 19.709C13.9551 19.9014 14.0679 20.0673 14.2072 20.2067C14.3466 20.346 14.5158 20.4588 14.7149 20.5451C14.9139 20.6313 15.1196 20.6745 15.332 20.6745C15.4514 20.6745 15.5708 20.6612 15.6903 20.6346C15.8097 20.6081 15.9225 20.5683 16.0287 20.5152C16.1348 20.4621 16.2344 20.3991 16.3273 20.3261C16.4202 20.2531 16.5031 20.1702 16.5761 20.0773C16.6491 19.9844 16.7121 19.8848 16.7652 19.7787C16.8183 19.6725 16.8581 19.5597 16.8847 19.4403C16.9112 19.3208 16.9245 19.2014 16.9245 19.082V19.0023L21.065 15.4391C21.264 15.532 21.4764 15.5784 21.702 15.5784C22.1399 15.5784 22.5148 15.4225 22.8267 15.1106C23.1386 14.7988 23.2945 14.4239 23.2945 13.9859C23.2945 13.548 23.1386 13.1731 22.8267 12.8612C22.5148 12.5494 22.1399 12.3934 21.702 12.3934Z" fill="currentColor"/>
<path d="M9.60647 14.9414C10.2106 15.7983 11.0591 16.4706 12.0505 16.8569L14.2172 17.9473C14.5357 17.6421 14.9073 17.4894 15.332 17.4894C15.6903 17.4894 16.022 17.6089 16.3273 17.8478L20.209 14.5035C20.1427 14.3177 20.1095 14.1452 20.1095 13.9859C20.1095 13.548 20.2654 13.1731 20.5773 12.8612C20.6614 12.7771 20.7501 12.7043 20.8434 12.6429C20.4501 16.0737 17.5362 18.7382 14 18.7382C13.5961 18.7382 13.2003 18.7034 12.8154 18.6367L10.7734 17.6089C10.7 17.6823 10.6224 17.7486 10.5406 17.8079C9.62474 17.275 8.84295 16.537 8.25815 15.6568C8.3932 15.4448 8.57139 15.2761 8.79272 15.1504C9.03824 15.0111 9.30697 14.9414 9.59893 14.9414C9.60145 14.9414 9.60396 14.9414 9.60647 14.9414Z" fill="currentColor"/>
<path d="M19.322 12.5855C19.3549 12.3449 19.372 12.0992 19.372 11.8496C19.372 8.88271 16.9669 6.4776 14 6.4776C11.0331 6.4776 8.62804 8.88271 8.62804 11.8496C8.62804 12.5512 8.76254 13.2214 9.00717 13.8358C8.73265 13.8938 8.46769 13.9934 8.21685 14.1358C8.01187 14.2522 7.82625 14.3915 7.66173 14.5522C7.30746 13.7224 7.11137 12.8089 7.11137 11.8496C7.11137 8.04508 10.1955 4.96094 14 4.96094C17.6368 4.96094 20.6153 7.77917 20.8709 11.3509C20.4543 11.481 20.0766 11.712 19.7523 12.0363C19.5831 12.2055 19.4393 12.3892 19.322 12.5855Z" fill="currentColor"/>
<path d="M14.1271 11.3844C13.1659 11.1345 12.8568 10.8762 12.8568 10.4739C12.8568 10.0124 13.2845 9.69055 14.0001 9.69055C14.6014 9.69055 14.9021 9.91922 15.0122 10.2834C15.063 10.4528 15.2027 10.5798 15.3806 10.5798H15.5076C15.7871 10.5798 15.9861 10.3046 15.8887 10.042C15.7109 9.54234 15.2959 9.12735 14.6353 8.96644V8.67425C14.6353 8.32278 14.3516 8.03906 14.0001 8.03906C13.6486 8.03906 13.3649 8.32278 13.3649 8.67425V8.95373C12.5434 9.13159 11.8828 9.66514 11.8828 10.4824C11.8828 11.4606 12.6916 11.9476 13.8731 12.2313C14.9317 12.4854 15.1434 12.858 15.1434 13.2518C15.1434 13.544 14.936 14.0098 14.0001 14.0098C13.3014 14.0098 12.9415 13.76 12.8017 13.4043C12.7382 13.2391 12.5942 13.1206 12.4206 13.1206H12.302C12.0183 13.1206 11.8193 13.4085 11.9252 13.6711C12.1665 14.2597 12.7297 14.6069 13.3649 14.7424V15.0261C13.3649 15.3776 13.6486 15.6613 14.0001 15.6613C14.3516 15.6613 14.6353 15.3776 14.6353 15.0261V14.7509C15.461 14.5942 16.1174 14.1157 16.1174 13.2476C16.1174 12.045 15.0884 11.6342 14.1271 11.3844Z" fill="black"/>
</svg>
