<svg width="22" height="22" viewBox="0 0 22 22" fill="none" xmlns="http://www.w3.org/2000/svg">
<path d="M13.7401 2.99938C13.5504 2.78767 13.2796 2.66669 12.9953 2.66669H6.11925C5.86138 2.67449 5.61662 2.79828 5.43815 3.01116C5.25969 3.22404 5.16194 3.50881 5.16615 3.80359V18.1964C5.16194 18.4912 5.25969 18.776 5.43815 18.9889C5.61662 19.2018 5.86138 19.3256 6.11925 19.3334H16.7128C16.9707 19.3256 17.2154 19.2018 17.3939 18.9889C17.5723 18.776 17.6701 18.4912 17.6659 18.1964V7.76343C17.6659 7.51716 17.575 7.27954 17.4107 7.09612L13.7401 2.99938ZM13.2858 4.14883L16.4107 7.66073H13.2858V4.14883ZM6.20779 18.1429V3.85716H12.1373V7.93959C12.1373 8.49187 12.585 8.93958 13.1373 8.93958H16.6242V18.1429H6.20779Z" fill="white"/>
</svg>
