<svg width="49" height="48" viewBox="0 0 49 48" fill="none" xmlns="http://www.w3.org/2000/svg">
<rect x="0.636475" width="48" height="48" rx="4" fill="#8500B9"/>
<path d="M35.3864 21.3594V36.3332H12.8864V21.3594M35.3864 21.3594H12.8864M35.3864 21.3594L24.1364 29.3951L12.8864 21.3594" stroke="white" stroke-width="1.5" stroke-linecap="round" stroke-linejoin="round"/>
<path fill-rule="evenodd" clip-rule="evenodd" d="M27.9903 14.857C27.9439 14.9036 27.8887 14.9405 27.8279 14.9657C27.7672 14.9909 27.7021 15.0039 27.6363 15.0039C27.5705 15.0039 27.5054 14.9909 27.4447 14.9657C27.3839 14.9405 27.3288 14.9036 27.2823 14.857L24.6363 12.21L21.9903 14.857C21.8964 14.9509 21.7691 15.0036 21.6363 15.0036C21.5035 15.0036 21.3762 14.9509 21.2823 14.857C21.1884 14.7631 21.1357 14.6358 21.1357 14.503C21.1357 14.3702 21.1884 14.2429 21.2823 14.149L24.2823 11.149C24.3288 11.1024 24.3839 11.0655 24.4447 11.0403C24.5054 11.0151 24.5705 11.0021 24.6363 11.0021C24.7021 11.0021 24.7672 11.0151 24.8279 11.0403C24.8887 11.0655 24.9439 11.1024 24.9903 11.149L27.9903 14.149C28.0369 14.1955 28.0738 14.2506 28.099 14.3114C28.1242 14.3721 28.1372 14.4372 28.1372 14.503C28.1372 14.5688 28.1242 14.6339 28.099 14.6946C28.0738 14.7554 28.0369 14.8106 27.9903 14.857Z" fill="white" stroke="white" stroke-width="0.2"/>
<path fill-rule="evenodd" clip-rule="evenodd" d="M24.6362 18.0039C24.5036 18.0039 24.3764 17.9512 24.2827 17.8575C24.1889 17.7637 24.1362 17.6365 24.1362 17.5039V12.5039C24.1362 12.3713 24.1889 12.2441 24.2827 12.1504C24.3764 12.0566 24.5036 12.0039 24.6362 12.0039C24.7688 12.0039 24.896 12.0566 24.9898 12.1504C25.0836 12.2441 25.1362 12.3713 25.1362 12.5039V17.5039C25.1362 17.6365 25.0836 17.7637 24.9898 17.8575C24.896 17.9512 24.7688 18.0039 24.6362 18.0039Z" fill="white" stroke="white" stroke-width="0.2"/>
</svg>
