<svg width="28" height="29" viewBox="0 0 28 29" fill="none" xmlns="http://www.w3.org/2000/svg">
<path fill-rule="evenodd" clip-rule="evenodd" d="M9.93557 6.14234C9.59075 6.34142 9.47261 6.78234 9.67169 7.12715L12.3609 11.785L11.3345 12.3775C10.9897 12.5766 10.8716 13.0175 11.0706 13.3623L13.4965 17.564C13.6956 17.9088 14.1365 18.027 14.4813 17.8279L15.5077 17.2353L18.1968 21.8931C18.3959 22.2379 18.8368 22.3561 19.1816 22.157L23.0831 19.9045C23.428 19.7054 23.5461 19.2645 23.347 18.9197L20.6578 14.2619L21.6842 13.6693C22.029 13.4702 22.1471 13.0293 21.948 12.6845L19.5222 8.48282C19.3231 8.13801 18.8822 8.01986 18.5374 8.21894L17.5111 8.81149L14.8219 4.15369C14.6228 3.80887 14.1819 3.69073 13.8371 3.88981L9.93557 6.14234ZM13.6096 11.064L11.2808 7.03057L13.9337 5.49896L16.2624 9.53241L13.6096 11.064ZM16.7563 16.5144L19.4092 14.9828L21.7379 19.0163L19.0851 20.5479L16.7563 16.5144ZM20.3389 12.7811L19.315 13.3722L19.3126 13.3736L15.4111 15.6262L15.4086 15.6276L14.3847 16.2187L12.6798 13.2657L18.634 9.8281L20.3389 12.7811Z" fill="currentColor"/>
<path d="M9.6676 13.8625C10.0617 13.9193 10.3352 14.2847 10.2785 14.6788C10.1975 15.2413 10.2974 15.8328 10.6039 16.3637C10.9105 16.8946 11.3727 17.2769 11.9003 17.488C12.27 17.6359 12.4498 18.0555 12.3019 18.4252C12.1539 18.7948 11.7344 18.9746 11.3647 18.8267C10.5476 18.4997 9.82913 17.9054 9.35524 17.0846C8.88136 16.2638 8.72591 15.3445 8.85131 14.4734C8.90804 14.0793 9.27351 13.8058 9.6676 13.8625Z" fill="currentColor"/>
<path d="M7.93321 13.9108C8.02276 13.5229 7.78085 13.1358 7.39289 13.0462C7.00493 12.9567 6.61784 13.1986 6.52829 13.5865C6.17056 15.1364 6.37637 16.8223 7.23468 18.309C7.965 19.5739 9.05706 20.5026 10.3043 21.0377C10.6702 21.1947 11.0941 21.0254 11.2511 20.6595C11.4081 20.2936 11.2387 19.8697 10.8728 19.7127C9.90173 19.296 9.05283 18.5744 8.48337 17.588C7.81465 16.4298 7.65431 15.1192 7.93321 13.9108Z" fill="currentColor"/>
</svg>
