<svg width="14" height="21" viewBox="0 0 14 21" fill="none" xmlns="http://www.w3.org/2000/svg">
<path d="M6.89453 0.472656C5.63151 0.472656 4.4694 0.785156 3.4082 1.41016C2.34701 2.03516 1.51367 2.88477 0.908203 3.95898C0.302734 5.0332 0 6.20833 0 7.48438C0 7.95312 0.0358073 8.39583 0.107422 8.8125C0.179036 9.22917 0.283203 9.60677 0.419922 9.94531C0.556641 10.2839 0.69987 10.5866 0.849609 10.8535C0.999349 11.1204 1.1849 11.3809 1.40625 11.6348C1.6276 11.8887 1.81641 12.0938 1.97266 12.25C2.12891 12.4062 2.32422 12.5885 2.55859 12.7969C2.59766 12.8359 2.65625 12.888 2.73438 12.9531C2.99479 13.1875 3.18359 13.3633 3.30078 13.4805C3.41797 13.5977 3.52539 13.7344 3.62305 13.8906C3.7207 14.0469 3.76953 14.1966 3.76953 14.3398V15.3945C3.76953 15.4076 3.77604 15.4336 3.78906 15.4727H3.76953V17.2891C3.76953 17.9141 3.89974 18.4674 4.16016 18.9492C4.42057 19.431 4.78841 19.8053 5.26367 20.0723C5.73893 20.3392 6.28906 20.4727 6.91406 20.4727C7.83854 20.4727 8.58724 20.1797 9.16016 19.5938C9.73307 19.0078 10.0195 18.2396 10.0195 17.2891V15.4727H10V15.4531C10.013 15.4271 10.0195 15.4076 10.0195 15.3945V14.3398C10.0195 14.1055 10.0879 13.8743 10.2246 13.6465C10.3613 13.4186 10.498 13.2396 10.6348 13.1094C10.7715 12.9792 11.0221 12.7513 11.3867 12.4258C11.6211 12.2174 11.8132 12.0417 11.9629 11.8984C12.1126 11.7552 12.2917 11.5632 12.5 11.3223C12.7083 11.0814 12.8809 10.8405 13.0176 10.5996C13.1543 10.3587 13.2878 10.082 13.418 9.76953C13.5482 9.45703 13.6426 9.10872 13.7012 8.72461C13.7598 8.34049 13.7891 7.92708 13.7891 7.48438C13.7891 6.84635 13.7077 6.22461 13.5449 5.61914C13.3822 5.01367 13.1543 4.45703 12.8613 3.94922C12.5684 3.44141 12.2103 2.9694 11.7871 2.5332C11.3639 2.09701 10.9017 1.72917 10.4004 1.42969C9.89909 1.13021 9.34896 0.895833 8.75 0.726562C8.15104 0.557292 7.53255 0.472656 6.89453 0.472656ZM6.875 19.2227C6.28906 19.2227 5.83333 19.0501 5.50781 18.7051C5.18229 18.36 5.01953 17.888 5.01953 17.2891V16.4492C5.55339 16.6315 6.17839 16.7227 6.89453 16.7227C7.27214 16.7227 7.61719 16.6966 7.92969 16.6445C8.24219 16.5924 8.52214 16.5208 8.76953 16.4297V17.2891C8.76953 17.901 8.60352 18.3763 8.27148 18.7148C7.93945 19.0534 7.47396 19.2227 6.875 19.2227ZM10.5664 11.4883C10.5404 11.5013 10.5013 11.5339 10.4492 11.5859C10.1758 11.8203 9.96745 12.0091 9.82422 12.1523C9.68099 12.2956 9.51172 12.4876 9.31641 12.7285C9.12109 12.9694 8.98112 13.2201 8.89648 13.4805C8.81185 13.7409 8.76953 14.0273 8.76953 14.3398V15.1211C8.32682 15.3685 7.69531 15.4922 6.875 15.4922C6.66667 15.4922 6.47461 15.4824 6.29883 15.4629C6.12305 15.4434 5.97005 15.4238 5.83984 15.4043C5.70964 15.3848 5.58919 15.3587 5.47852 15.3262C5.36784 15.2936 5.27995 15.2643 5.21484 15.2383C5.14974 15.2122 5.08464 15.1797 5.01953 15.1406V14.3398C5.01953 13.7018 4.66146 13.0443 3.94531 12.3672C3.85417 12.2891 3.71745 12.1654 3.53516 11.9961L3.39844 11.8789C3.17708 11.6836 2.99805 11.5143 2.86133 11.3711C2.72461 11.2279 2.56185 11.0488 2.37305 10.834C2.18424 10.6191 2.03125 10.4043 1.91406 10.1895C1.79688 9.97461 1.68294 9.73047 1.57227 9.45703C1.46159 9.18359 1.38021 8.88086 1.32812 8.54883C1.27604 8.2168 1.25 7.86198 1.25 7.48438C1.25 5.88281 1.79688 4.52214 2.89062 3.40234C3.98438 2.28255 5.31901 1.72266 6.89453 1.72266C7.9362 1.72266 8.88997 1.97982 9.75586 2.49414C10.6217 3.00846 11.3021 3.70833 11.7969 4.59375C12.2917 5.47917 12.5391 6.44271 12.5391 7.48438C12.5391 7.83594 12.5163 8.16471 12.4707 8.4707C12.4251 8.77669 12.3535 9.05339 12.2559 9.30078C12.1582 9.54818 12.054 9.76628 11.9434 9.95508C11.8327 10.1439 11.6927 10.3359 11.5234 10.5312C11.3542 10.7266 11.2044 10.8893 11.0742 11.0195C10.944 11.1497 10.7747 11.306 10.5664 11.4883Z" fill="white"/>
</svg>
