<svg width="19" height="25" viewBox="0 0 19 25" fill="none" xmlns="http://www.w3.org/2000/svg">
<path d="M12.8134 1.13934C12.6237 0.92762 12.3529 0.806641 12.0687 0.806641H2.26348C1.90246 0.817563 1.5598 0.99087 1.30995 1.2889C1.0601 1.58693 0.923248 1.98561 0.929138 2.39831V22.5483C0.923248 22.961 1.0601 23.3597 1.30995 23.6577C1.5598 23.9557 1.90246 24.1291 2.26348 24.14H17.0944C17.4554 24.1291 17.7981 23.9557 18.048 23.6577C18.2978 23.3597 18.4347 22.961 18.4288 22.5483V7.7891C18.4288 7.54283 18.3379 7.30521 18.1736 7.12179L12.8134 1.13934ZM12.2966 2.88164L16.6715 7.79831H12.2966V2.88164ZM2.38744 22.4733V2.47331H10.6887V8.5887C10.6887 9.14098 11.1364 9.5887 11.6887 9.5887H16.9705V22.4733H2.38744Z" fill="#6FD4FF"/>
</svg>
