<svg width="20" height="20" viewBox="0 0 20 20" fill="none" xmlns="http://www.w3.org/2000/svg">
<path d="M13.8089 15.2735L10.5374 13.4668C11.08 13.0328 11.4733 12.4414 11.7174 11.6927C11.9616 10.944 12.0837 10.2333 12.0837 9.56057V7.3633C12.0837 6.88587 11.8965 6.40844 11.5221 5.93101C11.1478 5.45358 10.6568 5.06024 10.0492 4.751C9.44152 4.44175 8.82303 4.28713 8.19369 4.28713C7.82476 4.28713 7.44499 4.34681 7.05436 4.46617C6.66374 4.58552 6.30566 4.74828 5.98014 4.95445C5.65462 5.16061 5.36165 5.39119 5.10124 5.64618C4.84082 5.90117 4.63737 6.18058 4.49089 6.4844C4.3444 6.78822 4.27116 7.08118 4.27116 7.3633V9.56057C4.27116 10.1682 4.40679 10.8572 4.67806 11.6276C4.94933 12.398 5.36165 13.0057 5.91504 13.4505L2.5459 15.2735C2.48079 15.306 2.39941 15.3494 2.30176 15.4037C2.2041 15.4579 2.07389 15.561 1.91113 15.7129C1.74837 15.8648 1.66699 16.0113 1.66699 16.1524V17.4707C1.66699 17.7203 1.7538 17.9292 1.92741 18.0974C2.10102 18.2655 2.30718 18.3496 2.5459 18.3496H13.8089C14.0476 18.3496 14.2538 18.2655 14.4274 18.0974C14.601 17.9292 14.6878 17.7203 14.6878 17.4707V16.1524C14.6878 16.0873 14.6716 16.0194 14.639 15.9489C14.6064 15.8784 14.5658 15.816 14.5169 15.7617C14.4681 15.7075 14.4111 15.6532 14.346 15.599C14.2809 15.5447 14.2158 15.4986 14.1507 15.4606C14.0856 15.4227 14.0286 15.3901 13.9798 15.363C13.931 15.3359 13.8903 15.3169 13.8577 15.306L13.8089 15.2735ZM13.6462 17.308H2.70866V16.3802C2.79546 16.3151 2.88227 16.2663 2.96908 16.2337L3.03418 16.2012L6.40332 14.362C6.45757 14.3403 6.5064 14.3105 6.54981 14.2725C6.59321 14.2345 6.6339 14.1965 6.67188 14.1586C6.70985 14.1206 6.74512 14.0772 6.77767 14.0283C6.81022 13.9795 6.83735 13.928 6.85905 13.8737C6.88075 13.8195 6.89974 13.7652 6.91602 13.711C6.93229 13.6567 6.94043 13.6025 6.94043 13.5482C6.97298 13.1793 6.8482 12.8755 6.56608 12.6367C6.35992 12.474 6.17274 12.257 6.00456 11.9857C5.83637 11.7144 5.70345 11.4323 5.60579 11.1393C5.50814 10.8464 5.4349 10.5643 5.38607 10.293C5.33724 10.0217 5.31283 9.77758 5.31283 9.56057V7.3633C5.31283 6.95098 5.61936 6.50881 6.23242 6.0368C6.84549 5.5648 7.49924 5.3288 8.19369 5.3288C8.90983 5.3288 9.56359 5.56209 10.1549 6.02867C10.7463 6.49525 11.042 6.94012 11.042 7.3633V9.56057C11.042 10.0923 10.9498 10.6592 10.7653 11.2614C10.5808 11.8636 10.2879 12.3221 9.88639 12.6367C9.59343 12.8755 9.46322 13.1793 9.49577 13.5482C9.52832 13.9171 9.70736 14.1938 10.0329 14.3783L13.3044 16.1849L13.402 16.2337C13.478 16.2663 13.5594 16.3151 13.6462 16.3802V17.308ZM17.4548 12.6856L14.1344 10.8627C14.4166 10.6348 14.6661 10.35 14.8831 10.0082C15.1002 9.66636 15.2683 9.311 15.3877 8.94208C15.5071 8.57315 15.5939 8.22322 15.6481 7.89227C15.7024 7.56133 15.7295 7.2548 15.7295 6.97268V4.77541C15.7295 4.41734 15.6128 4.05113 15.3796 3.67678C15.1463 3.30243 14.8506 2.96877 14.4925 2.6758C14.1344 2.38283 13.714 2.1414 13.2311 1.95152C12.7483 1.76163 12.2681 1.66669 11.7907 1.66669C11.1831 1.66669 10.5781 1.81588 9.97591 2.11428C9.3737 2.41267 8.87728 2.78973 8.48665 3.24546C8.54091 3.24546 8.62771 3.24818 8.74707 3.2536C8.86643 3.25903 8.95866 3.26445 9.02376 3.26988C9.08887 3.2753 9.17296 3.28344 9.27604 3.29429C9.37912 3.30514 9.47407 3.31871 9.56087 3.33498C9.64768 3.35126 9.72906 3.37025 9.80501 3.39195C10.391 2.94707 11.0528 2.72463 11.7907 2.72463C12.5068 2.72463 13.1687 2.96063 13.7764 3.43264C14.384 3.90464 14.6878 4.35223 14.6878 4.77541V6.97268C14.6878 7.48266 14.5875 8.04418 14.3867 8.65725C14.186 9.27031 13.8849 9.73418 13.4834 10.0488C13.1904 10.2767 13.0602 10.5805 13.0928 10.9603C13.0928 11.0254 13.1036 11.0905 13.1253 11.1556C13.147 11.2207 13.1742 11.2831 13.2067 11.3428C13.2393 11.4025 13.2745 11.4594 13.3125 11.5137C13.3505 11.5679 13.3966 11.6168 13.4508 11.6602C13.5051 11.7036 13.5648 11.747 13.6299 11.7904L16.9502 13.597C16.9719 13.6079 16.9909 13.616 17.0072 13.6214C17.0234 13.6269 17.0397 13.635 17.056 13.6459C17.0723 13.6567 17.0913 13.6676 17.113 13.6784L17.1781 13.711L17.235 13.7435L17.292 13.7761V14.7038H15.1924C15.29 14.7798 15.3741 14.8774 15.4447 14.9968C15.5152 15.1161 15.5667 15.2246 15.5993 15.3223C15.6318 15.4199 15.6752 15.561 15.7295 15.7455H17.4548C17.6175 15.7455 17.7667 15.7075 17.9023 15.6315C18.038 15.5556 18.1438 15.4498 18.2197 15.3141C18.2957 15.1785 18.3337 15.0293 18.3337 14.8666V13.5645C18.3337 13.4126 18.2604 13.2634 18.1139 13.1169C17.9674 12.9704 17.8183 12.8592 17.6663 12.7832L17.4548 12.6856Z" fill="#E4E9F2"/>
</svg>
