<svg width="25" height="24" viewBox="0 0 25 24" fill="none" xmlns="http://www.w3.org/2000/svg">
<path fill-rule="evenodd" clip-rule="evenodd" d="M14.2421 2C14.5074 2 14.7617 2.10536 14.9492 2.29289L19.9571 7.30075C20.1446 7.48829 20.25 7.74264 20.25 8.00786V21C20.25 21.5523 19.8023 22 19.25 22H6.25C5.69772 22 5.25 21.5523 5.25 21V3C5.25 2.44772 5.69772 2 6.25 2H14.2421ZM14.2421 3H6.25V21H19.25V8.00786L14.2421 3Z" fill="#2E3A59"/>
<path d="M12.6923 18.2553C12.2315 18.2553 11.8859 17.9097 11.8859 17.4489V16.7577H11.6555C11.0794 16.6425 9.92738 16.2968 9.46655 15.1448C9.46655 15.0296 9.46655 14.9144 9.46655 14.7992C9.58176 14.684 9.69696 14.5688 9.81217 14.5688H10.0426C10.273 14.5688 10.3882 14.684 10.5034 14.9144C10.7338 15.4904 11.1946 16.0664 12.6923 16.0664C14.6508 16.0664 14.766 14.7992 14.766 14.5688C14.766 13.6471 14.0748 13.0711 12.4619 12.7255C10.3882 12.1494 9.46655 11.343 9.46655 10.0757C9.46655 8.80847 10.6186 8.00203 11.6555 7.77162H11.8859V7.08038C11.8859 6.61956 12.2315 6.27394 12.6923 6.27394C13.1531 6.27394 13.4988 6.61956 13.4988 7.08038V7.77162H13.7292C14.6508 8.00203 15.2268 8.57806 15.5725 9.3845C15.5725 9.4997 15.5725 9.61491 15.5725 9.73011C15.4573 9.84532 15.342 9.96052 15.1116 9.96052H14.9964C14.766 9.96052 14.6508 9.84532 14.6508 9.61491C14.4204 8.80847 13.8444 8.46285 12.8075 8.46285C11.4251 8.46285 10.6186 9.15408 10.6186 9.96052C10.6186 10.8822 11.5403 11.343 12.9227 11.6886C14.5356 12.1494 16.0333 12.7255 16.0333 14.4535C16.0333 16.0664 14.6508 16.5273 13.8444 16.6425H13.614V17.3337C13.4988 17.9097 13.1531 18.2553 12.6923 18.2553Z" fill="#2E3A59"/>
</svg>
