<svg width="20" height="20" viewBox="0 0 20 20" fill="none" xmlns="http://www.w3.org/2000/svg">
<path d="M17.3702 18.1929L17.3704 18.1931L18.1876 17.3921L18.2585 17.3216L18.2584 17.3215C18.2584 17.3214 18.2583 17.3214 18.2583 17.3214L13.2754 12.3064C14.2579 11.1038 14.7498 9.71975 14.7498 8.15809C14.7498 6.9616 14.4559 5.85688 13.868 4.84589C13.2804 3.83542 12.478 3.03585 11.4623 2.44835C10.4461 1.86059 9.34144 1.56669 8.15028 1.56669C6.95912 1.56669 5.85712 1.86059 4.84619 2.44847C3.83585 3.036 3.03631 3.83555 2.44877 4.84589C1.86085 5.85688 1.56699 6.9616 1.56699 8.15809C1.56699 9.35457 1.86085 10.4593 2.44877 11.4703C3.03631 12.4806 3.83585 13.2802 4.84619 13.8677C5.85719 14.4556 6.96191 14.7495 8.15839 14.7495C9.76348 14.7495 11.1803 14.2309 12.4048 13.1954L17.3702 18.1929ZM8.15839 13.5271C7.1804 13.5271 6.28103 13.2855 5.45829 12.8025C4.63463 12.3189 3.98433 11.6659 3.50615 10.8424C3.02829 10.0194 2.78939 9.12526 2.78939 8.15809C2.78939 7.19091 3.02829 6.29677 3.50615 5.4738C3.98433 4.65026 4.63463 3.99729 5.45829 3.51372C6.28112 3.03063 7.1778 2.78908 8.15028 2.78908C9.12275 2.78908 10.0194 3.03063 10.8423 3.51372C11.6659 3.99729 12.3162 4.65026 12.7944 5.4738C13.2723 6.29677 13.5112 7.19091 13.5112 8.15809C13.5112 8.57226 13.4634 8.98105 13.3678 9.38463C13.2721 9.78869 13.1367 10.1654 12.9618 10.5152C12.7863 10.8662 12.5762 11.1987 12.3314 11.5127C12.0874 11.8257 11.8117 12.104 11.5042 12.3478C11.1959 12.5924 10.8663 12.8023 10.5155 12.9778C10.1657 13.1526 9.78899 13.288 9.38494 13.3837C8.98136 13.4793 8.57256 13.5271 8.15839 13.5271Z" fill="#E4E9F2" stroke="#E4E9F2" stroke-width="0.2"/>
</svg>
