<svg width="16" height="16" viewBox="0 0 16 16" fill="none" xmlns="http://www.w3.org/2000/svg">
<path d="M12.9244 3.41228H10.0467V2.28168C10.0467 2.1084 10.0041 1.94813 9.91879 1.80084C9.83353 1.65356 9.71842 1.53877 9.57347 1.45646C9.42852 1.37416 9.27078 1.33301 9.10025 1.33301H6.90041C6.64461 1.33301 6.42292 1.42398 6.23534 1.60591C6.04775 1.78785 5.95396 2.0131 5.95396 2.28168V3.41228H3.07626C2.96542 3.41228 2.8695 3.45343 2.78849 3.53574C2.70749 3.61804 2.66699 3.71551 2.66699 3.82813C2.66699 3.94076 2.70749 4.03823 2.78849 4.12053C2.8695 4.20284 2.96542 4.24399 3.07626 4.24399H3.63901L4.58546 13.8606C4.61104 14.0859 4.70696 14.2765 4.87323 14.4324C5.03949 14.5884 5.23347 14.6663 5.45516 14.6663H10.5455C10.7672 14.6663 10.9612 14.5884 11.1274 14.4324C11.2937 14.2765 11.3854 14.0859 11.4024 13.8606L12.3616 4.24399H12.9244C12.9926 4.24399 13.0587 4.2245 13.1226 4.18551C13.1866 4.14652 13.2377 4.09671 13.2761 4.03606C13.3145 3.97542 13.3337 3.90611 13.3337 3.82813C13.3337 3.71551 13.2932 3.61804 13.2122 3.53574C13.1312 3.45343 13.0352 3.41228 12.9244 3.41228ZM6.77251 2.28168C6.77251 2.19504 6.81514 2.15172 6.90041 2.15172H9.10025C9.18551 2.15172 9.22814 2.19504 9.22814 2.28168V3.41228H6.77251V2.28168ZM10.5966 13.7827C10.5881 13.8173 10.5711 13.8346 10.5455 13.8346H5.45516C5.42958 13.8346 5.41253 13.8173 5.404 13.7827L4.47035 4.24399H11.5303L10.5966 13.7827Z" fill="#8F9BB3"/>
</svg>
