<svg width="24" height="24" viewBox="0 0 24 24" fill="none" xmlns="http://www.w3.org/2000/svg">
<path fill-rule="evenodd" clip-rule="evenodd" d="M16.83 20.0614C18.4901 19.1029 19.0589 16.98 18.1005 15.3199C17.7805 14.7656 17.4552 14.427 17.1132 14.21C16.7716 13.9932 16.3466 13.8553 15.7608 13.8054C15.3728 13.7724 14.9867 13.626 14.6984 13.5057C14.5428 13.4407 14.3847 13.3695 14.2385 13.3035L14.2181 13.2942C14.0753 13.2298 13.9424 13.1698 13.8111 13.1139C13.5268 12.9928 13.3152 12.9202 13.1576 12.8922C13.1402 12.8891 13.1249 12.8869 13.1116 12.8852C13.1026 12.9014 13.0924 12.921 13.081 12.9446C13.0096 13.0931 12.9403 13.3015 12.8658 13.5754C12.8296 13.7085 12.7952 13.845 12.7588 13.9896L12.758 13.9931C12.7228 14.1329 12.6852 14.2822 12.646 14.4253C12.5732 14.6903 12.4687 15.0375 12.3013 15.3242C11.637 16.4617 11.4901 17.7545 12.0885 18.7909C13.047 20.451 15.1698 21.0198 16.83 20.0614ZM13.0387 12.8817L13.0408 12.8814L13.0387 12.8817ZM17.33 20.9274C19.4684 19.6927 20.2011 16.9583 18.9665 14.8199C18.2063 13.5033 17.2537 12.9289 15.8456 12.809C15.5102 12.7805 15.0781 12.5854 14.6264 12.3814C13.8945 12.0509 13.1109 11.697 12.6027 11.9904C12.1674 12.2418 11.9692 13.0294 11.7896 13.7436C11.6815 14.1732 11.5801 14.5762 11.4378 14.8199C10.6546 16.1609 10.3904 17.8497 11.2225 19.2909C12.4571 21.4293 15.1915 22.162 17.33 20.9274Z" fill="black"/>
<path fill-rule="evenodd" clip-rule="evenodd" d="M20.4618 5.61669C21.4203 7.27684 20.8515 9.39968 19.1913 10.3582C17.5312 11.3167 15.4083 10.7478 14.4498 9.08769C13.8045 7.96995 13.8504 6.64155 14.4599 5.59785C14.665 5.24675 14.7271 4.85774 14.7563 4.5891C14.7767 4.40198 14.788 4.17773 14.7972 3.99517L14.7973 3.99501C14.801 3.92113 14.8044 3.85409 14.8079 3.79911C14.8196 3.61541 14.8347 3.49188 14.8525 3.40801C14.9371 3.40513 15.1018 3.42228 15.4325 3.50518C15.5029 3.52281 15.5795 3.54303 15.6619 3.56478L15.6619 3.56479C16.1444 3.69217 16.8246 3.87174 17.6017 3.88827C18.7681 3.91309 19.8676 4.58745 20.4618 5.61669ZM21.3278 5.11669C22.5625 7.25514 21.8298 9.98956 19.6913 11.2242C17.5529 12.4588 14.8185 11.7261 13.5838 9.58769C12.7517 8.1465 12.8132 6.43461 13.5964 5.09356C13.7544 4.823 13.7751 4.40791 13.7962 3.98668C13.8256 3.39779 13.8557 2.79691 14.2622 2.56222C14.7368 2.28819 15.2726 2.4286 15.9361 2.60245C16.4214 2.72963 16.975 2.87471 17.623 2.8885C19.1565 2.92113 20.5677 3.8001 21.3278 5.11669ZM10.1974 11.9268C9.70125 13.7785 7.79797 14.8773 5.94631 14.3812C4.09465 13.885 2.99579 11.9818 3.49194 10.1301C3.82599 8.88342 4.79777 7.97655 5.96675 7.66952C6.29952 7.58212 6.60992 7.40613 6.83603 7.26835C6.95818 7.1939 7.08078 7.11456 7.19314 7.0416L7.22094 7.02355C7.3263 6.95512 7.42353 6.89197 7.52046 6.83161C7.73776 6.69629 7.89938 6.60992 8.02326 6.5643C8.04444 6.55649 8.06175 6.55093 8.07549 6.54697C8.09814 6.56399 8.13277 6.59396 8.17908 6.64518C8.288 6.76568 8.40775 6.9436 8.54664 7.18727C8.63603 7.3441 8.71177 7.48798 8.79343 7.6431L8.79345 7.64314L8.7935 7.64325C8.8466 7.74412 8.90221 7.84976 8.9657 7.96679C9.10495 8.2235 9.28206 8.53395 9.49606 8.78776C10.2052 9.62876 10.5026 10.7876 10.1974 11.9268ZM11.1633 12.1856C10.5242 14.5708 8.07262 15.9862 5.68749 15.3471C3.30236 14.708 1.88692 12.2564 2.52601 9.87128C2.95673 8.26383 4.21069 7.09682 5.71272 6.70232C5.99296 6.62872 6.32756 6.41139 6.67751 6.18409C7.235 5.82198 7.83147 5.43456 8.30925 5.56258C8.91222 5.72415 9.32021 6.49794 9.69068 7.20057L9.69068 7.20057C9.88341 7.5661 10.066 7.91237 10.2606 8.14315C11.1715 9.22351 11.5568 10.7172 11.1633 12.1856Z" fill="black"/>
<path d="M16.8855 6.98569C16.7562 6.74171 16.4536 6.64877 16.2096 6.7781C15.9656 6.90744 15.8727 7.21007 16.002 7.45405L16.5041 8.40129C16.6335 8.64527 16.9361 8.73821 17.1801 8.60888C17.4241 8.47954 17.517 8.17691 17.3877 7.93293L16.8855 6.98569Z" fill="black"/>
<path d="M6.75854 10.7896C7.03469 10.7896 7.25854 11.0134 7.25854 11.2896L7.25854 11.8014C7.25854 12.0775 7.03469 12.3014 6.75854 12.3014C6.4824 12.3014 6.25854 12.0775 6.25854 11.8014V11.2896C6.25854 11.0134 6.4824 10.7896 6.75854 10.7896Z" fill="black"/>
<path d="M15.823 16.918C16.0621 16.7799 16.3679 16.8618 16.506 17.101L16.7619 17.5443C16.9 17.7834 16.818 18.0892 16.5789 18.2273C16.3397 18.3653 16.0339 18.2834 15.8959 18.0443L15.64 17.601C15.5019 17.3618 15.5838 17.056 15.823 16.918Z" fill="black"/>
</svg>
