<svg width="28" height="29" viewBox="0 0 28 29" fill="none" xmlns="http://www.w3.org/2000/svg">
<path fill-rule="evenodd" clip-rule="evenodd" d="M20.3179 6.65557C21.8805 8.0458 22.9304 9.90344 23.3044 11.9394H23.3051C23.3267 12.0622 23.312 12.1886 23.2627 12.3035C23.2133 12.4184 23.1315 12.517 23.0267 12.5877C22.922 12.6584 22.7988 12.6982 22.6717 12.7023C22.5447 12.7065 22.419 12.6749 22.3097 12.6113C21.8207 12.2781 21.2474 12.084 20.653 12.0503C20.0879 12.0638 19.5363 12.2221 19.0531 12.5094C18.5698 12.7968 18.1717 13.2032 17.8984 13.6882C17.8395 13.7856 17.7557 13.8662 17.6554 13.9222C17.5551 13.9782 17.4416 14.0077 17.3262 14.0077C17.2107 14.0077 17.0973 13.9782 16.997 13.9222C16.8966 13.8662 16.8129 13.7856 16.754 13.6882C16.531 13.304 16.2309 12.968 15.8718 12.7005C15.5127 12.433 15.1021 12.2395 14.6648 12.1318L13.3341 12.1325C12.8968 12.24 12.4863 12.4333 12.1272 12.7005C11.7682 12.9678 11.468 13.3036 11.2449 13.6876C11.1814 13.7791 11.0961 13.8539 10.9964 13.9057C10.8966 13.9574 10.7855 13.9845 10.6726 13.9845C10.5598 13.9845 10.4487 13.9574 10.3489 13.9057C10.2492 13.8539 10.1639 13.7791 10.1004 13.6876C9.82704 13.2027 9.42891 12.7964 8.94566 12.5091C8.4624 12.2219 7.91085 12.0637 7.34588 12.0503C6.75145 12.084 6.1781 12.2781 5.68915 12.6113C5.57983 12.6747 5.45428 12.7062 5.32732 12.7019C5.20035 12.6976 5.07729 12.6578 4.97268 12.5871C4.86807 12.5165 4.78628 12.4179 4.73697 12.3031C4.68767 12.1884 4.67291 12.0621 4.69444 11.9394C5.06841 9.90344 6.11837 8.0458 7.68092 6.65557C9.24348 5.26535 11.231 4.42053 13.3341 4.25259V3.58332C13.3341 3.21586 13.632 2.91797 13.9994 2.91797C14.3669 2.91797 14.6648 3.21586 14.6648 3.58332V4.25259C16.7679 4.42053 18.7554 5.26535 20.3179 6.65557ZM6.34585 10.8846C6.67087 10.7924 7.00753 10.7457 7.34588 10.7457C8.29276 10.7486 9.21285 11.0541 9.96671 11.6158C9.96121 9.50617 10.6745 7.45511 11.9934 5.78812C10.7022 6.12744 9.51414 6.76827 8.53065 7.6558C7.54715 8.54334 6.79752 9.65118 6.34585 10.8846ZM11.3007 11.6785C12.0677 11.0787 13.0184 10.7501 13.9994 10.7457C14.9792 10.7501 15.929 11.078 16.6954 11.6765C16.6668 10.2264 16.2816 7.43912 13.9994 5.69289C11.7053 7.44499 11.3254 10.2303 11.3007 11.6785ZM18.0321 11.6152C18.7861 11.0537 19.7062 10.7484 20.653 10.7457C20.9913 10.7457 21.328 10.7924 21.653 10.8846C21.2014 9.65106 20.4518 8.54308 19.4683 7.65543C18.4848 6.76778 17.2967 6.12686 16.0055 5.78747C17.3243 7.45446 18.0376 9.50551 18.0321 11.6152Z" fill="currentColor"/>
<path fill-rule="evenodd" clip-rule="evenodd" d="M8.07025 17.6075C7.58513 17.3146 7.02885 17.1602 6.46215 17.1602H4.68481V18.0488C4.68481 18.8737 5.01286 19.6647 5.59604 20.2484C6.17923 20.8315 6.96983 21.1592 7.79515 21.1592H8.68381V23.34H9.57248V21.6035H10.239C11.0053 21.6035 11.7395 21.2993 12.281 20.7578C12.8225 20.2158 13.1271 19.4812 13.1271 18.7153V17.6045H11.572C11.1103 17.6041 10.6555 17.7147 10.2459 17.9265C9.83543 18.1382 9.48222 18.4459 9.2158 18.8225C9.0726 18.5496 8.88949 18.3009 8.67513 18.0835C8.49462 17.9013 8.29155 17.7412 8.07025 17.6075ZM11.572 18.4932H12.2385V18.7153C12.2385 18.9778 12.1864 19.2378 12.0866 19.4803C11.9859 19.7229 11.8384 19.9433 11.6527 20.129C11.5451 20.2366 11.4262 20.3312 11.2977 20.4115C11.2049 20.4697 11.1068 20.5204 11.0044 20.5625C10.7614 20.6632 10.5019 20.7148 10.239 20.7148H9.57248V20.4927C9.57248 19.9624 9.78336 19.4539 10.1583 19.0789C10.5332 18.7036 11.0417 18.4932 11.572 18.4932ZM5.57348 18.0488H6.46215C7.05141 18.0488 7.61637 18.2827 8.03293 18.6997C8.4495 19.1163 8.68381 19.6812 8.68381 20.2705H7.79515C7.20588 20.2705 6.64092 20.0366 6.22436 19.6196C5.87375 19.269 5.65245 18.813 5.59084 18.3261C5.57956 18.2345 5.57348 18.1421 5.57348 18.0488Z" fill="currentColor" stroke="currentColor" stroke-width="0.3" stroke-linejoin="round"/>
<path fill-rule="evenodd" clip-rule="evenodd" d="M19.9293 17.6075C20.4144 17.3146 20.9707 17.1602 21.5374 17.1602H23.3147V18.0488C23.3147 18.8737 22.9867 19.6647 22.4035 20.2484C21.8203 20.8315 21.0297 21.1592 20.2044 21.1592H19.3157V23.34H18.427V21.6035H17.7605C16.9942 21.6035 16.26 21.2993 15.7185 20.7578C15.177 20.2158 14.8724 19.4812 14.8724 18.7153V17.6045H16.4275C16.8892 17.6041 17.344 17.7147 17.7536 17.9265C18.1641 18.1382 18.5173 18.4459 18.7837 18.8225C18.9269 18.5496 19.11 18.3009 19.3244 18.0835C19.5049 17.9013 19.708 17.7412 19.9293 17.6075ZM16.4275 18.4932H15.761V18.7153C15.761 18.9778 15.8131 19.2378 15.9129 19.4803C16.0136 19.7229 16.1611 19.9433 16.3468 20.129C16.4544 20.2366 16.5733 20.3312 16.7018 20.4115C16.7946 20.4697 16.8927 20.5204 16.9951 20.5625C17.2381 20.6632 17.4976 20.7148 17.7605 20.7148H18.427V20.4927C18.427 19.9624 18.2161 19.4539 17.8412 19.0789C17.4663 18.7036 16.9578 18.4932 16.4275 18.4932ZM22.426 18.0488H21.5374C20.9481 18.0488 20.3831 18.2827 19.9666 18.6997C19.55 19.1163 19.3157 19.6812 19.3157 20.2705H20.2044C20.7936 20.2705 21.3586 20.0366 21.7752 19.6196C22.1258 19.269 22.3471 18.813 22.4087 18.3261C22.42 18.2345 22.426 18.1421 22.426 18.0488Z" fill="currentColor" stroke="currentColor" stroke-width="0.3" stroke-linejoin="round"/>
<path fill-rule="evenodd" clip-rule="evenodd" d="M4.68481 23.6118C4.68481 23.193 5.02433 22.8535 5.44315 22.8535H22.5564C22.9752 22.8535 23.3148 23.193 23.3148 23.6118C23.3148 24.0307 22.9752 24.3702 22.5564 24.3702H5.44315C5.02433 24.3702 4.68481 24.0307 4.68481 23.6118Z" fill="currentColor"/>
</svg>
