<svg width="24" height="24" viewBox="0 0 24 24" fill="none" xmlns="http://www.w3.org/2000/svg">
<path fill-rule="evenodd" clip-rule="evenodd" d="M21.2218 8.91071C21.3999 9.08887 21.5 9.33051 21.5 9.58247V18.175C21.5 18.6997 21.0747 19.125 20.55 19.125L3.45 19.125C2.92533 19.125 2.5 18.6997 2.5 18.175V4.825C2.5 4.30033 2.92533 3.875 3.45 3.875H15.7925C16.0445 3.875 16.2861 3.97509 16.4643 4.15325L21.2218 8.91071ZM20.55 18.175L20.55 9.58247L15.7925 4.825L3.45 4.825L3.45 7.53432H15.7786V8.53432H3.45L3.45 18.175L20.55 18.175ZM4.60795 6.20424C4.60795 5.9281 4.83181 5.70424 5.10795 5.70424L8.10795 5.70424C8.38409 5.70424 8.60795 5.9281 8.60795 6.20424C8.60795 6.48039 8.38409 6.70424 8.10795 6.70424L5.10795 6.70424C4.8318 6.70424 4.60795 6.48038 4.60795 6.20424Z" fill="#2E3A59"/>
<path fill-rule="evenodd" clip-rule="evenodd" d="M15.2656 9.30332V4.46747H16.2656V8.80332H21.0914V9.80332H15.7656C15.4895 9.80332 15.2656 9.57946 15.2656 9.30332ZM6 11.6506C6 11.3744 6.22386 11.1506 6.5 11.1506H17.5C17.7761 11.1506 18 11.3744 18 11.6506C18 11.9267 17.7761 12.1506 17.5 12.1506H6.5C6.22386 12.1506 6 11.9267 6 11.6506ZM6.5 14.4666C6.22386 14.4666 6 14.6904 6 14.9666C6 15.2427 6.22386 15.4666 6.5 15.4666H13.5C13.7761 15.4666 14 15.2427 14 14.9666C14 14.6904 13.7761 14.4666 13.5 14.4666H6.5Z" fill="black"/>
<path fill-rule="evenodd" clip-rule="evenodd" d="M15.2656 9.30332V4.46747H16.2656V8.80332H21.0914V9.80332H15.7656C15.4895 9.80332 15.2656 9.57946 15.2656 9.30332ZM6 11.6506C6 11.3744 6.22386 11.1506 6.5 11.1506H17.5C17.7761 11.1506 18 11.3744 18 11.6506C18 11.9267 17.7761 12.1506 17.5 12.1506H6.5C6.22386 12.1506 6 11.9267 6 11.6506ZM6.5 14.4666C6.22386 14.4666 6 14.6904 6 14.9666C6 15.2427 6.22386 15.4666 6.5 15.4666H13.5C13.7761 15.4666 14 15.2427 14 14.9666C14 14.6904 13.7761 14.4666 13.5 14.4666H6.5Z" fill="#2E3A59"/>
</svg>
