<svg width="21" height="20" viewBox="0 0 21 20" fill="none" xmlns="http://www.w3.org/2000/svg">
<path d="M9.87109 12.637V4.79199C9.87109 4.64008 9.91992 4.5153 10.0176 4.41764C10.1152 4.31999 10.24 4.27116 10.3919 4.27116C10.5438 4.27116 10.6686 4.31999 10.7663 4.41764C10.8639 4.5153 10.9128 4.64008 10.9128 4.79199V12.637H9.87109ZM9.87109 13.6624H10.9128V14.639H9.87109V13.6624ZM2.05859 10.0003C2.05859 7.69998 2.8724 5.736 4.5 4.1084C6.1276 2.48079 8.09158 1.66699 10.3919 1.66699C12.6923 1.66699 14.6563 2.48079 16.2839 4.1084C17.9115 5.736 18.7253 7.69998 18.7253 10.0003C18.7253 12.3007 17.9115 14.2647 16.2839 15.8923C14.6563 17.5199 12.6923 18.3337 10.3919 18.3337C8.09158 18.3337 6.1276 17.5199 4.5 15.8923C2.8724 14.2647 2.05859 12.3007 2.05859 10.0003ZM17.6999 10.0003C17.6999 7.99295 16.9837 6.27583 15.5514 4.84896C14.1191 3.42209 12.3993 2.70866 10.3919 2.70866C8.38455 2.70866 6.66743 3.42209 5.24056 4.84896C3.81369 6.27583 3.10026 7.99295 3.10026 10.0003C3.10026 12.0077 3.81369 13.7248 5.24056 15.1517C6.66743 16.5786 8.38455 17.292 10.3919 17.292C12.3993 17.292 14.1191 16.5786 15.5514 15.1517C16.9837 13.7248 17.6999 12.0077 17.6999 10.0003Z" fill="#8F9BB3"/>
</svg>
