<svg width="18" height="19" viewBox="0 0 18 19" fill="none" xmlns="http://www.w3.org/2000/svg">
<path fill-rule="evenodd" clip-rule="evenodd" d="M7.54457 3.05626C7.30668 2.87784 7.12827 2.7589 6.89038 2.63995C7.66352 0.320537 10.8155 0.320537 11.5887 2.63995C11.3508 2.7589 11.1129 2.87784 10.9345 3.05626C13.4918 2.04523 15.6328 4.42412 14.9191 6.20828C14.3839 6.26776 13.8486 6.3867 13.3728 6.68406C18.2496 5.79198 18.1306 11.9176 14.3839 11.9176H10.0424V17.2701H12.7187C13.2539 17.2701 13.2539 18.0432 12.7187 18.0432H5.70093C5.16569 18.0432 5.16569 17.2701 5.70093 17.2701H8.37718V13.9991L6.29566 11.9176H4.09519C0.288966 11.9176 0.110549 5.73251 5.04674 6.68406C4.63044 6.3867 4.09519 6.26776 3.50046 6.20828C2.7868 4.36465 5.04674 2.04523 7.54457 3.05626ZM8.37718 12.9286V11.9176H7.36616L8.37718 12.9286Z" fill="#C5CEE0"/>
</svg>
