<svg width="25" height="24" viewBox="0 0 25 24" fill="none" xmlns="http://www.w3.org/2000/svg">
<path fill-rule="evenodd" clip-rule="evenodd" d="M7.4259 5.2317C7.64346 5.27007 7.78872 5.47753 7.75035 5.69509C7.7008 5.97611 7.64596 6.2106 7.58596 6.40612C7.65824 6.45411 7.72127 6.51014 7.77272 6.57446C7.77272 6.69161 7.80703 6.77446 7.83546 6.84309C7.85556 6.89161 7.87272 6.93304 7.87272 6.97446C8.12272 6.92446 8.39772 6.87446 8.67272 6.82446C8.94772 6.77446 9.22272 6.72446 9.47272 6.67446C9.61018 6.64697 9.75519 6.61192 9.90569 6.57554C10.3026 6.47961 10.7377 6.37446 11.1727 6.37446C11.5727 6.27446 11.9727 6.27446 12.4727 6.27446C13.6727 6.27446 14.7727 6.37446 15.8727 6.47446C16.4727 6.47446 17.0727 6.47446 17.5727 6.37446C18.4727 6.27446 19.1727 6.27446 19.8727 6.47446C20.3727 6.67446 20.7727 6.97446 21.0727 7.37446C21.0727 7.37446 21.0727 7.47446 21.1727 7.57446V7.67446L21.4727 8.37446C21.4727 8.47446 21.4977 8.57446 21.5227 8.67446C21.5477 8.77446 21.5727 8.87446 21.5727 8.97446C21.7727 9.27446 21.8727 9.57446 21.9727 9.97446C22.0727 10.2745 22.0727 10.6745 22.0727 11.0745C22.0788 11.1593 22.0845 11.2456 22.0902 11.3331C22.1797 12.6893 22.2878 14.329 24.0727 15.1745C24.2727 15.2745 24.2727 15.4745 24.1727 15.4745C24.0727 15.5745 23.9727 15.6745 23.8727 15.6745H23.7727C21.5727 14.6745 21.4727 12.5745 21.4727 10.9745V10.6745C21.4227 10.8245 21.3727 10.9995 21.3227 11.1745C21.2727 11.3495 21.2227 11.5245 21.1727 11.6745C21.0727 11.8745 20.9727 12.2745 20.9727 12.3745C20.8727 12.6745 20.9727 13.4745 21.0727 13.8745C21.1727 14.2745 21.1727 14.5745 21.1727 14.7745V17.0745C21.2727 17.6745 21.0727 18.1745 20.9727 18.2745C20.8727 18.5745 20.6727 18.6745 20.3727 18.6745H19.0727C18.7727 18.6745 18.5727 18.5745 18.4727 18.3745C18.2727 18.0745 18.1727 17.7745 18.1727 17.4745C18.1727 17.0745 18.4727 16.8745 18.6727 16.7745C18.6727 16.7183 18.6806 16.6385 18.6897 16.5461C18.7131 16.3094 18.7446 15.9902 18.6727 15.7745C18.1727 15.4745 17.6727 14.9745 17.4727 14.4745C16.9727 14.6745 16.3727 14.7745 15.7727 14.7745C15.0977 14.7745 14.5352 14.662 14.043 14.5635C13.879 14.5307 13.7227 14.4995 13.5727 14.4745C13.4556 14.4745 13.3384 14.4401 13.2413 14.4117C13.1727 14.3916 13.1141 14.3745 13.0727 14.3745H12.2727C12.2727 14.6244 12.2477 14.8744 12.2227 15.1244C12.1977 15.3744 12.1727 15.6245 12.1727 15.8745C12.0727 16.3745 12.0727 17.1745 12.0727 17.2745C12.1727 17.7745 12.0727 18.1745 11.7727 18.4745C11.5727 18.6745 11.2727 18.7745 11.0727 18.7745H9.67272C9.47272 18.7745 9.17272 18.6745 9.07272 18.4745C8.87272 18.1745 8.77272 17.7745 8.97272 17.3745C9.04616 17.0807 9.28142 16.8948 9.48043 16.7375C9.55239 16.6807 9.6196 16.6276 9.67272 16.5745C9.67272 16.2745 9.67272 15.2745 9.37272 14.0745C8.97272 13.8745 8.67272 13.5745 8.37272 13.2745C8.2537 13.1951 8.15042 13.1 8.05039 13.0079C7.89829 12.8679 7.7537 12.7348 7.57272 12.6745C6.94317 12.4047 6.4754 11.8113 6.09664 11.3309C6.05431 11.2772 6.01292 11.2247 5.97272 11.1745C5.64259 11.2405 5.26887 11.2193 4.88034 11.1973C4.68041 11.186 4.47656 11.1745 4.27272 11.1745H3.27272C2.87272 11.1745 2.57272 10.9745 2.37272 10.7745C2.32272 10.6745 2.27272 10.5995 2.22272 10.5245C2.17272 10.4495 2.12272 10.3745 2.07272 10.2745C2.01656 10.2183 1.99194 10.1306 1.96344 10.0291C1.94119 9.94984 1.91656 9.86214 1.87272 9.77446C1.67272 9.57446 1.67272 9.27446 1.77272 8.97446C1.97272 8.37446 2.57272 8.17446 3.37272 7.97446C3.47272 7.87446 3.57272 7.77446 3.67272 7.57446C3.87272 7.17446 4.17272 6.67446 4.97272 6.57446C5.17272 6.47446 5.37272 6.47446 5.57272 6.47446C5.65511 6.42738 5.74304 6.38584 5.83472 6.35C5.82823 6.20808 5.84458 6.05197 5.87766 5.88298C5.92009 5.66618 6.13024 5.52483 6.34704 5.56726C6.56384 5.60969 6.70519 5.81984 6.66276 6.03664C6.65125 6.09547 6.64383 6.14527 6.63931 6.18717C6.69877 6.18524 6.7578 6.18554 6.816 6.18811C6.8649 6.03204 6.91488 5.82625 6.96251 5.55615C7.00088 5.3386 7.20835 5.19333 7.4259 5.2317ZM6.67272 7.57446C6.62699 7.52873 6.60218 7.4621 6.59827 7.39368C6.5148 7.39436 6.46234 7.38329 6.46653 7.38329C6.35903 7.38329 6.26143 7.34088 6.18956 7.27188C6.08698 7.30304 5.97985 7.33875 5.87272 7.37446C5.77272 7.47446 5.67272 7.47446 5.57272 7.47446C5.47272 7.47446 5.37272 7.47446 5.07272 7.57446C4.87272 7.67446 4.77272 7.77446 4.57272 8.07446C4.47272 8.27446 4.27272 8.67446 3.67272 8.87446C2.87272 9.17446 2.67272 9.27446 2.67272 9.27446C2.77272 9.47446 2.87272 9.67446 2.97272 9.77446C3.02272 9.82446 3.04772 9.89946 3.07272 9.97445C3.09772 10.0495 3.12272 10.1245 3.17272 10.1745H3.67272C3.80021 10.1107 3.9277 10.1282 4.0811 10.1493C4.16834 10.1613 4.26395 10.1745 4.37272 10.1745C4.52431 10.1745 4.68228 10.1808 4.83857 10.1872C5.30088 10.2058 5.74851 10.2239 5.97272 10.0745C6.17272 9.97446 6.47272 10.0745 6.57272 10.2745C7.07272 11.0745 7.57272 11.5745 7.87272 11.7745C8.29087 11.8581 8.56915 12.1515 8.82452 12.4209C8.8745 12.4736 8.92361 12.5254 8.97272 12.5745C9.27272 12.8745 9.57272 13.1745 9.87272 13.1745C10.0727 13.1745 10.2727 13.3745 10.3727 13.7745C10.3857 13.8652 10.4053 13.9844 10.4285 14.1245C10.5838 15.0661 10.895 16.9522 10.3727 17.4745C10.3727 17.5745 10.2727 17.5745 10.2727 17.5745C10.1963 17.6508 10.1199 17.7126 10.0547 17.7654C9.94913 17.8508 9.87272 17.9127 9.87272 17.9745H10.8727V17.5745C10.8727 17.4745 10.8727 17.0745 10.9727 16.0745C10.9727 15.6951 11.0021 15.3157 11.029 14.9682C11.0517 14.6745 11.0727 14.4035 11.0727 14.1745C11.0727 13.8745 11.2727 13.6745 11.5727 13.6745C11.8727 13.5745 12.4727 13.5745 12.8727 13.5745C13.0727 13.5745 13.2727 13.5745 13.5727 13.6745C13.6727 13.6945 13.7807 13.7185 13.8959 13.7441C14.3567 13.8465 14.9327 13.9745 15.5727 13.9745C16.2727 13.9745 16.7727 13.7745 17.2727 13.5745C17.5727 13.4745 17.8727 13.5745 17.9727 13.7745C18.3727 14.4745 18.7727 14.8745 19.0727 15.0745C19.2727 15.1745 19.4727 15.2745 19.5727 15.6745C19.7727 16.2745 19.5727 17.2745 19.4727 17.4745C19.4227 17.5245 19.3727 17.5495 19.3227 17.5745C19.2727 17.5995 19.2227 17.6245 19.1727 17.6745L19.0727 17.7745H20.0727V17.4745C19.9727 17.1745 19.9727 16.6745 20.0727 15.4745V14.9745C20.0727 14.8846 20.0525 14.7745 20.0303 14.6532C20.003 14.5048 19.9727 14.3396 19.9727 14.1745C19.8727 13.4745 19.8727 12.7745 19.8727 12.4745C19.8727 12.2976 19.9422 12.1208 20.0197 11.9235C20.0738 11.786 20.1317 11.6387 20.1727 11.4745C20.3727 11.0745 20.5727 10.4745 20.6727 9.87446C20.6727 9.57446 20.6727 9.07446 20.4727 8.57446L20.1727 7.87446C20.0865 7.61569 19.8514 7.50573 19.6601 7.41621C19.6296 7.40195 19.6002 7.3882 19.5727 7.37446C19.0727 7.27446 18.3727 7.27446 17.6727 7.37446C17.0727 7.47446 16.4727 7.57446 15.7727 7.47446C14.2727 7.37446 12.4727 7.27446 11.2727 7.37446C11.0227 7.42446 10.7477 7.47445 10.4727 7.52445C10.1977 7.57445 9.92272 7.62446 9.67272 7.67446C8.77272 7.87446 7.77272 8.07446 7.07272 7.97446C6.87272 7.87446 6.67272 7.77446 6.67272 7.57446Z" fill="#2E3A59"/>
</svg>
