<svg width="24" height="24" viewBox="0 0 24 24" fill="none" xmlns="http://www.w3.org/2000/svg">
<path fill-rule="evenodd" clip-rule="evenodd" d="M16.3305 20.0623C16.1731 20.2128 15.9774 20.2922 15.7579 20.2922C15.5316 20.2922 15.3305 20.2079 15.1708 20.0481L7.65513 12.5324C7.49534 12.3727 7.41101 12.1716 7.41101 11.9453C7.41101 11.719 7.49534 11.518 7.65513 11.3582L15.0614 3.95193C15.2234 3.78993 15.428 3.70781 15.6563 3.70781C15.8847 3.70781 16.0893 3.78993 16.2513 3.95193C16.354 4.05461 16.4225 4.1797 16.461 4.31814C16.5016 4.46443 16.5016 4.6137 16.461 4.75998C16.4225 4.89842 16.354 5.02351 16.2513 5.12619L9.43215 11.9453L16.345 18.8582C16.4037 18.9169 16.4565 18.9842 16.495 19.0611C16.5248 19.1208 16.5484 19.1829 16.5646 19.2476C16.5814 19.3151 16.5891 19.3839 16.5891 19.4531C16.5891 19.5224 16.5814 19.5911 16.5664 19.6588C16.5508 19.7289 16.5271 19.7965 16.495 19.8607C16.4545 19.9417 16.3974 20.0086 16.3305 20.0623Z" fill="#290038"/>
</svg>
