<svg width="48" height="48" viewBox="0 0 48 48" fill="none" xmlns="http://www.w3.org/2000/svg">
<path d="M33.1406 30.3672L25.2891 26.0312C26.5911 24.9896 27.5352 23.5703 28.1211 21.7734C28.707 19.9766 29 18.2708 29 16.6562V11.3828C29 10.237 28.5508 9.09115 27.6523 7.94531C26.7539 6.79948 25.5755 5.85547 24.1172 5.11328C22.6589 4.37109 21.1745 4 19.6641 4C18.7786 4 17.8672 4.14323 16.9297 4.42969C15.9922 4.71615 15.1328 5.10677 14.3516 5.60156C13.5703 6.09635 12.8672 6.64974 12.2422 7.26172C11.6172 7.8737 11.1289 8.54427 10.7773 9.27344C10.4258 10.0026 10.25 10.7057 10.25 11.3828V16.6562C10.25 18.1146 10.5755 19.7682 11.2266 21.6172C11.8776 23.4661 12.8672 24.9245 14.1953 25.9922L6.10938 30.3672C5.95312 30.4453 5.75781 30.5495 5.52344 30.6797C5.28906 30.8099 4.97656 31.0573 4.58594 31.4219C4.19531 31.7865 4 32.138 4 32.4766V35.6406C4 36.2396 4.20833 36.7409 4.625 37.1445C5.04167 37.5482 5.53646 37.75 6.10938 37.75H33.1406C33.7135 37.75 34.2083 37.5482 34.625 37.1445C35.0417 36.7409 35.25 36.2396 35.25 35.6406V32.4766C35.25 32.3203 35.2109 32.1576 35.1328 31.9883C35.0547 31.819 34.957 31.6693 34.8398 31.5391C34.7227 31.4089 34.5859 31.2786 34.4297 31.1484C34.2734 31.0182 34.1172 30.9076 33.9609 30.8164C33.8047 30.7253 33.668 30.6471 33.5508 30.582C33.4336 30.5169 33.3359 30.4714 33.2578 30.4453L33.1406 30.3672ZM32.75 35.25H6.5V33.0234C6.70833 32.8672 6.91667 32.75 7.125 32.6719L7.28125 32.5938L15.3672 28.1797C15.4974 28.1276 15.6146 28.056 15.7188 27.9648C15.8229 27.8737 15.9206 27.7826 16.0117 27.6914C16.1029 27.6003 16.1875 27.4961 16.2656 27.3789C16.3438 27.2617 16.4089 27.138 16.4609 27.0078C16.513 26.8776 16.5586 26.7474 16.5977 26.6172C16.6367 26.487 16.6562 26.3568 16.6562 26.2266C16.7344 25.3411 16.4349 24.612 15.7578 24.0391C15.263 23.6484 14.8138 23.1276 14.4102 22.4766C14.0065 21.8255 13.6875 21.1484 13.4531 20.4453C13.2188 19.7422 13.043 19.0651 12.9258 18.4141C12.8086 17.763 12.75 17.1771 12.75 16.6562V11.3828C12.75 10.3932 13.4857 9.33203 14.957 8.19922C16.4284 7.06641 17.9974 6.5 19.6641 6.5C21.3828 6.5 22.9518 7.0599 24.3711 8.17969C25.7904 9.29948 26.5 10.3672 26.5 11.3828V16.6562C26.5 17.9323 26.2786 19.293 25.8359 20.7383C25.3932 22.1836 24.6901 23.2839 23.7266 24.0391C23.0234 24.612 22.7109 25.3411 22.7891 26.2266C22.8672 27.112 23.2969 27.776 24.0781 28.2188L31.9297 32.5547L32.1641 32.6719C32.3464 32.75 32.5417 32.8672 32.75 33.0234V35.25Z" fill="#2E3A59"/>
<path d="M44 34C44 39.5228 39.5228 44 34 44C28.4772 44 24 39.5228 24 34C24 28.4772 28.4772 24 34 24C39.5228 24 44 28.4772 44 34Z" fill="white"/>
<path d="M33.9999 28C34.5522 28 34.9999 28.4692 34.9999 29.0479V34.9521C34.9999 35.5308 34.5522 36 33.9999 36C33.4476 36 32.9999 35.5308 32.9999 34.9521V29.0479C32.9999 28.4692 33.4476 28 33.9999 28Z" fill="#EA7000"/>
<path d="M33.9999 40C34.5522 40 34.9999 39.5523 34.9999 39C34.9999 38.4477 34.5522 38 33.9999 38C33.4476 38 32.9999 38.4477 32.9999 39C32.9999 39.5523 33.4476 40 33.9999 40Z" fill="#EA7000"/>
<path fill-rule="evenodd" clip-rule="evenodd" d="M33.9999 44C39.5227 44 43.9999 39.5228 43.9999 34C43.9999 28.4772 39.5227 24 33.9999 24C28.477 24 23.9999 28.4772 23.9999 34C23.9999 39.5228 28.477 44 33.9999 44ZM33.9999 41.8C38.3077 41.8 41.7999 38.3078 41.7999 34C41.7999 29.6922 38.3077 26.2 33.9999 26.2C29.6921 26.2 26.1999 29.6922 26.1999 34C26.1999 38.3078 29.6921 41.8 33.9999 41.8Z" fill="#EA7000"/>
</svg>
